<?xml version="1.0" encoding="UTF-8" standalone="no"?>
<!-- Created with Inkscape (http://www.inkscape.org/) -->

<svg
   xmlns:dc="http://purl.org/dc/elements/1.1/"
   xmlns:cc="http://creativecommons.org/ns#"
   xmlns:rdf="http://www.w3.org/1999/02/22-rdf-syntax-ns#"
   xmlns:svg="http://www.w3.org/2000/svg"
   xmlns="http://www.w3.org/2000/svg"
   xmlns:sodipodi="http://sodipodi.sourceforge.net/DTD/sodipodi-0.dtd"
   xmlns:inkscape="http://www.inkscape.org/namespaces/inkscape"
   version="1.1"
   id="svg2"
   xml:space="preserve"
   width="1440"
   height="1440"
   viewBox="0 0 1440 1440"
   sodipodi:docname="LOGO.svg"
   inkscape:version="0.92.4 (5da689c313, 2019-01-14)"><metadata
     id="metadata8"><rdf:RDF><cc:Work
         rdf:about=""><dc:format>image/svg+xml</dc:format><dc:type
           rdf:resource="http://purl.org/dc/dcmitype/StillImage" /><dc:title></dc:title></cc:Work></rdf:RDF></metadata><defs
     id="defs6"><clipPath
       clipPathUnits="userSpaceOnUse"
       id="clipPath18"><path
         d="M 0,1080 H 1080 V 0 H 0 Z"
         id="path16"
         inkscape:connector-curvature="0" /></clipPath></defs><sodipodi:namedview
     pagecolor="#ffffff"
     bordercolor="#666666"
     borderopacity="1"
     objecttolerance="10"
     gridtolerance="10"
     guidetolerance="10"
     inkscape:pageopacity="0"
     inkscape:pageshadow="2"
     inkscape:window-width="738"
     inkscape:window-height="516"
     id="namedview4"
     showgrid="false"
     inkscape:zoom="0.16388889"
     inkscape:cx="720"
     inkscape:cy="720"
     inkscape:window-x="1943"
     inkscape:window-y="1850"
     inkscape:window-maximized="0"
     inkscape:current-layer="g10" /><g
     id="g10"
     inkscape:groupmode="layer"
     inkscape:label="LOGO"
     transform="matrix(1.3333333,0,0,-1.3333333,0,1440)"><g
       id="g12"><g
         id="g14"
         clip-path="url(#clipPath18)"><g
           id="g20"
           transform="translate(261.7193,289.1416)"><path
             d="M 0,0 C 0,-0.611 0.918,-0.611 0.918,0 0.918,0.613 0,0.613 0,0"
             style="fill:#010101;fill-opacity:1;fill-rule:nonzero;stroke:none"
             id="path22"
             inkscape:connector-curvature="0" /></g><g
           id="g24"
           transform="translate(721.3739,433.1422)"><path
             d="M 0,0 C -0.92,1.83 -3.06,0 -2.45,-0.92 -1.53,-1.53 0.91,-1.53 0,0 m 3.36,6.73 c -0.31,0 -0.31,-0.31 0,-0.31 0.31,0 0.31,0.31 0,0.31 m 0,0 c -0.31,0 -0.31,-0.31 0,-0.31 0.31,0 0.31,0.31 0,0.31 M 0,0 C -0.92,1.83 -3.06,0 -2.45,-0.92 -1.53,-1.53 0.91,-1.53 0,0 M 0,0 C -0.92,1.83 -3.06,0 -2.45,-0.92 -1.53,-1.53 0.91,-1.53 0,0 m 3.36,6.73 c -0.31,0 -0.31,-0.31 0,-0.31 0.31,0 0.31,0.31 0,0.31 m 0,0 c -0.31,0 -0.31,-0.31 0,-0.31 0.31,0 0.31,0.31 0,0.31 M 0,0 C -0.92,1.83 -3.06,0 -2.45,-0.92 -1.53,-1.53 0.91,-1.53 0,0 M 0,0 C -0.92,1.83 -3.06,0 -2.45,-0.92 -1.53,-1.53 0.91,-1.53 0,0 m 3.36,6.73 c -0.31,0 -0.31,-0.31 0,-0.31 0.31,0 0.31,0.31 0,0.31 m 0,0 c -0.31,0 -0.31,-0.31 0,-0.31 0.31,0 0.31,0.31 0,0.31 M 0,0 C -0.92,1.83 -3.06,0 -2.45,-0.92 -1.53,-1.53 0.91,-1.53 0,0 M 0,0 C -0.92,1.83 -3.06,0 -2.45,-0.92 -1.53,-1.53 0.91,-1.53 0,0 m 3.36,6.73 c -0.31,0 -0.31,-0.31 0,-0.31 0.31,0 0.31,0.31 0,0.31 m 0,0 c -0.31,0 -0.31,-0.31 0,-0.31 0.31,0 0.31,0.31 0,0.31 M 0,0 C -0.92,1.83 -3.06,0 -2.45,-0.92 -1.53,-1.53 0.91,-1.53 0,0 M 0,0 C -0.92,1.83 -3.06,0 -2.45,-0.92 -1.53,-1.53 0.91,-1.53 0,0 m 3.36,6.73 c -0.31,0 -0.31,-0.31 0,-0.31 0.31,0 0.31,0.31 0,0.31 m 0,0 c -0.31,0 -0.31,-0.31 0,-0.31 0.31,0 0.31,0.31 0,0.31 M 0,0 C -0.92,1.83 -3.06,0 -2.45,-0.92 -1.53,-1.53 0.91,-1.53 0,0 M 0,0 C -0.92,1.83 -3.06,0 -2.45,-0.92 -1.53,-1.53 0.91,-1.53 0,0 m 3.36,6.42 c 0.31,0 0.31,0.31 0,0.31 -0.31,0 -0.31,-0.31 0,-0.31 m 148.12,184.12 c -0.6,0.29 -1.2,0.58 -1.79,0.88 -11.89,-1 -23.34,-3.54 -34.46,-7.41 -29.82,-10.36 -58.8,-22.58 -89.74,-30.44 -22.82,-5.8 -45.56,-11.81 -68.59,-16.92 -0.36,-0.24 -0.7,-0.49 -1.01,-0.73 -2.28,0.85 -4.38,-0.14 -6.5,-0.94 -0.25,-0.16 -0.47,-0.33 -0.69,-0.5 -3.58,2.47 -5.82,4.74 1.75,6.28 1.71,0.35 3.13,1.82 4.68,2.78 16.5,6.88 33.8,11.89 51.48,15.64 20.22,4.29 40.97,6.94 60.12,14.42 8.28,3.23 18.47,4.75 21.98,14.02 -0.09,0.14 -0.19,0.25 -0.31,0.34 0.14,0.08 0.26,0.16 0.39,0.23 0.88,0.46 1.76,0.92 2.72,1.28 0.88,0.18 1.59,-0.08 2.25,-0.43 -0.57,0.07 -1.14,0.15 -1.71,0.23 -0.44,-0.17 -0.9,-0.3 -1.38,-0.38 -0.2,0 -0.39,-0.13 -0.59,-0.4 -0.2,-0.28 -0.04,-0.58 0.49,-0.9 1.49,-0.18 3.05,-0.52 3.56,1.25 0.76,-0.44 1.49,-0.93 2.41,-0.96 10.65,2.82 20.65,7.16 31.77,9.12 14.43,2.55 29.27,4 42.96,9.3 0.67,0.44 1.15,1 1.5,1.66 0.95,-0.18 1.79,-0.11 2.49,0.33 0.1,0 0.2,-0.02 0.31,-0.01 -6.32,-7.69 -14.51,-13.44 -24.09,-17.74 M -65.84,154.1 c -4.26,5 -8.54,10.04 -13.51,14.52 -8.24,7.42 -8.42,10.26 -0.13,17.05 0.71,-0.55 1.48,-1.03 2.39,-1.34 4.52,-1.22 9.16,-1.92 13.9,-2.15 18.58,-0.88 36.86,-3.55 55.05,-6.89 8.99,-1.65 17.97,-3.49 27.19,-4.06 -20.86,-6.02 -41.28,-13.12 -62.04,-19.37 -1.38,-0.42 -2.46,-1.4 -3.42,-2.39 -0.03,-0.03 -0.05,-0.06 -0.08,-0.09 -1.71,0.79 -3.64,0.65 -5.3,-0.01 -6.68,-2.65 -10.35,0.38 -14.05,4.73 M -90,154.94 c 4.75,-4.52 7.44,-9.91 9.57,-15.55 -2.81,2.66 -5.42,5.46 -7.47,8.68 -4.78,7.52 -11.26,13.04 -21.26,15.22 -6.81,1.49 -14.16,10.59 -14.47,16.41 7.18,-0.85 14.53,-1.13 20.56,-5.57 1.54,-1.13 3.69,-1.55 5.82,-1.51 0.58,0.16 1.1,0.35 1.6,0.56 2.74,-1.38 4.66,-3.78 7.11,-5.42 6.1,-4.1 12.78,-8.61 14.59,-15.9 -4.25,1.87 -6.93,5.52 -10.97,7.62 -1.86,0.97 -3.99,1.49 -5.74,0.16 -2.16,-1.63 -0.61,-3.48 0.66,-4.7 m -0.11,-23.68 c -0.04,0.26 -0.06,0.51 -0.05,0.72 0.52,0.04 1.06,-0.02 1.6,-0.13 -0.52,-0.18 -1.03,-0.38 -1.55,-0.59 m -78.11,-4.46 c -4.84,1.18 -11.06,1.48 -12.89,6.54 1.35,-0.8 2.84,-1.41 4.49,-1.77 14.08,-3 28.3,-5.68 42.85,-3.92 11.95,1.46 23.7,1.59 35.42,-0.61 -23.21,-6.91 -46.57,-5.91 -69.87,-0.24 m -5.14,-27.09 c -0.24,0.01 -0.49,0.01 -0.49,0.01 0.08,0.17 0.16,0.34 0.24,0.51 0.18,-0.15 0.35,-0.29 0.52,-0.43 -0.09,-0.03 -0.18,-0.05 -0.27,-0.09 m -16.21,61.23 c -0.41,0.16 -0.82,0.26 -1.23,0.4 0.66,0.66 1.11,1.44 1.67,2.16 2.86,3.65 5.84,8.05 11.83,4.83 6.4,-3.44 3.71,-7.67 0.47,-11.93 -2.66,-3.49 -6.16,-6.71 -7.05,-11 -2.36,5.04 -1.88,10.94 -5.69,15.54 m -4.17,63.88 c 6.49,-1.34 10.9,-5.29 14.72,-9.85 8.03,-9.6 15.8,-19.38 24.47,-28.55 1.94,-2.05 3.1,-5.22 6.86,-5.31 1,-5.18 6.94,-7.98 8.48,-13.15 -4.2,-0.15 -7.25,1.42 -9.36,3.97 -5.04,6.08 -10.94,11.72 -14.24,18.77 -2.21,4.73 -5.34,7.43 -11.46,8.38 -11.03,1.72 -16.84,7.85 -18.19,17.59 -0.38,2.73 0.07,5.56 -1.28,8.15 m 38.11,-15.21 c 8.48,2.11 17.23,2.03 25.86,2.89 2.9,0.85 5.93,1.18 8.89,1.81 6.4,2.26 13.97,-1.25 20.01,2.82 0.19,-0.22 0.39,-0.43 0.62,-0.65 0.74,-0.38 1.54,-0.67 2.38,-0.85 2.63,-0.44 5.31,-0.35 7.97,-0.38 1.78,0.01 3.56,0.02 5.33,0.1 0.38,0.02 0.74,0.04 1.11,0.07 1.42,-0.91 2.84,-0.82 4.25,0.26 0.09,-0.17 0.22,-0.34 0.4,-0.5 1.5,-0.99 3.25,-1.26 5.06,-1.34 2.16,-0.07 4.32,-0.03 6.47,0.02 1.29,0.03 2.56,0.12 3.82,0.36 0.4,0.09 0.79,0.21 1.16,0.36 -0.54,-0.57 -0.96,-1.19 -1.17,-1.94 -1.03,0.07 -2.07,0.13 -3.1,0.2 -2.34,0.01 -4.69,0.01 -7.03,0.01 -4.71,0.79 -9.43,0.69 -14.14,0.06 -0.14,-0.19 -0.22,-0.37 -0.29,-0.56 -1.14,0.17 -2.28,0.33 -3.42,0.5 -4.09,-0.18 -8.18,-0.36 -12.27,-0.54 0.56,-0.46 1.12,-0.92 1.68,-1.38 4.69,0.1 9.37,0.2 14.06,0.3 0.13,-0.27 0.31,-0.53 0.61,-0.78 5.24,-0.15 10.5,-0.73 15.72,0.34 2.77,0.15 5.54,0.29 8.32,0.44 0.12,-0.28 0.27,-0.55 0.49,-0.81 0.67,-0.42 1.4,-0.73 2.19,-0.91 2.3,-0.25 4.61,-0.56 6.69,0.29 0.52,-0.28 1,-0.59 1.4,-0.94 17.5,-4.57 35.66,-5.16 53.63,-6.14 22.2,-1.21 43.62,-4.09 62.88,-14.69 0.14,-0.05 0.25,-0.12 0.38,-0.18 -11.41,-4.07 -22.25,1.24 -33.34,2.81 -38.54,5.48 -76.84,12.6 -115.96,14.32 -17.12,0.75 -34.32,1.46 -51.39,-0.7 -3.21,-0.4 -7.42,0.01 -8.59,-4.07 -0.04,-0.01 -0.07,-0.02 -0.1,-0.03 0.03,0.08 0.07,0.17 0.11,0.25 -6.89,2.1 -15.93,1.24 -18.18,9.7 2.27,-1.36 4.98,-1.15 7.49,-0.52 M 1.83,21.41 c 3.06,-4.28 -6.12,-7.34 -2.45,-8.26 11.63,-3.05 9.49,-4.28 10.71,-15.6 0.31,-2.14 12.85,-8.26 0.61,-6.42 -0.3,0 -1.83,0.3 -1.83,0.61 v 7.34 C 8.87,-0.31 7.34,0.3 6.73,0 v -4.9 c 0,0 -6.73,-1.83 -8.26,-2.45 -1.23,-0.3 -3.06,7.65 -5.82,9.8 V 15.6 c -3.67,2.45 -0.61,4.28 -6.42,6.73 5.81,7.96 9.79,-3.36 15.6,-0.92 M 20.8,-27.23 c 0.31,-3.98 -0.61,-7.04 -2.45,-2.45 -0.92,2.45 -0.61,4.9 2.45,2.45 m -9.18,8.26 c -0.92,-0.31 -3.06,0.61 -3.36,0.92 -2.76,1.22 -1.84,4.28 0,5.81 1.83,-1.22 4.28,-4.59 3.36,-6.73 m -4.89,-3.06 c -0.62,-0.31 -1.53,0 -1.53,0.61 v 2.45 c 1.83,1.22 1.53,-2.75 1.53,-3.06 M -6.43,-4.9 h -0.92 v 0.92 h 0.92 z m -3.98,10.71 c -0.3,0 -0.91,0.61 -0.91,0.92 v 1.53 c 1.22,0.92 2.44,-1.53 0.91,-2.45 m -4.28,4.9 c -0.3,0 -0.92,0.61 -0.92,0.91 l 1.84,3.06 c 0.61,1.53 5.81,-5.5 -0.92,-3.97 m -12.24,10.7 h -1.83 v 0.92 c 0,0 0.61,0.61 0.91,0.61 0.62,-0.3 1.23,-0.91 0.92,-1.53 m -0.92,-8.26 c -0.61,0.31 -2.14,1.84 -2.44,2.45 -1.23,2.45 2.14,2.76 3.36,2.45 0.31,-1.53 -0.3,-3.37 -0.92,-4.9 m -184.23,177.92 c -4.35,-3.57 -2.39,-8.7 -4.1,-12.94 -0.08,-0.71 -0.11,-1.42 -0.04,-2.16 0.04,-0.44 0.31,-0.88 0.37,-1.23 -0.12,-0.24 -0.21,-0.48 -0.26,-0.73 -0.09,0.13 -0.1,0.65 -0.24,0.5 -3.5,3 -7.69,3.25 -12.11,2.47 3.35,6.35 -2.21,11.6 -3.1,17.43 -1.62,10.68 -1.7,11.03 9.92,13.31 1.14,0.23 2.19,0.57 3.01,1.25 0.51,-0.95 1.17,-1.79 1.99,-2.56 8.55,-7.6 12.43,-17.18 15.81,-27.57 -4.68,4 -2.71,11.64 -11.25,12.23 m 6.09,-83.15 c -0.29,1.22 -0.87,2.36 -1.48,3.48 -0.76,1.39 -0.86,2.88 -0.94,4.37 -0.04,0.58 -0.06,1.17 -0.06,1.75 1.24,-3.6 2.95,-7.08 4.99,-10.46 -0.81,0.42 -1.61,0.85 -2.51,0.86 m -23.46,41.4 c -1.46,4.46 -2.09,8.71 -6.08,11.55 -0.73,0.38 -1.38,0.29 -2,0.09 0.01,0.02 0.01,0.05 0.02,0.07 0.02,0.49 -0.12,0.95 -0.41,1.37 -0.62,1.21 -1.39,2.22 -3.01,1.94 0.2,1.03 -0.45,1.42 -1.8,1.26 0.02,-1.89 0.03,-3.79 0.04,-5.69 -0.22,-0.1 -0.43,-0.2 -0.63,-0.33 -0.62,-0.64 -1.01,-1.39 -1.37,-2.16 -0.44,-0.73 -1.08,-1.27 -1.88,-1.66 -0.6,-0.18 -1.24,-0.32 -1.86,-0.46 -7.73,2.13 -9.69,1.14 -10.14,-5.96 -0.05,-0.78 -0.19,-1.51 -0.37,-2.23 -0.12,5.74 -1.33,11.29 -4.52,16.52 -0.39,0.23 -0.75,0.35 -1.1,0.42 0.66,1.07 0.17,1.47 -0.89,1.55 0.22,0.24 0.45,0.5 0.69,0.79 1.51,5.04 -0.39,9.58 -2.59,14.07 0.9,-0.54 1.7,-1.25 2.64,-1.74 2.43,-1.24 4.45,-1.38 5.25,1.58 -2.49,11.02 -2.52,11.27 6.96,16.14 7.45,-6.76 13.13,-14.94 21.54,-20.93 -0.3,-0.36 -0.55,-0.75 -0.72,-1.2 -1.08,-4.64 1.85,-8.61 2.82,-12.9 0.9,-3.95 2.07,-7.83 -0.59,-12.09 m -56.6,-58.76 v 0.12 c 0.08,-0.03 0.15,-0.06 0.23,-0.1 -0.08,-0.01 -0.15,0 -0.23,-0.02 m -14.6,51.43 c -0.14,-0.65 -0.46,-1.18 -0.93,-1.64 -0.15,-0.01 -0.29,-0.02 -0.44,-0.03 -0.23,-0.23 -0.46,-0.45 -0.68,-0.68 -1.02,-0.4 -2.11,-0.61 -3.19,-0.83 -0.2,-0.03 -0.38,-0.08 -0.54,-0.15 -0.58,-0.15 -1.15,-0.3 -1.68,-0.55 -0.86,-0.49 -1.39,-1.17 -1.62,-2.01 -6.88,2.53 -12.43,1.09 -16.61,-4.37 -0.85,0.26 -1.72,0.5 -2.6,0.67 -3.62,0.3 -7.16,-0.42 -10.41,-1.57 -23.52,-8.32 -48.19,-9.33 -71.03,-10.31 16.67,1.6 34.27,6.44 52.11,10.05 0.86,0.17 1.73,0.42 2.49,0.82 1.97,1.03 4.7,1.8 3.76,4.49 -0.79,2.3 -3.18,2.81 -5.7,2.93 -3.2,0.16 -6.25,-1.09 -8.63,-0.79 7.36,1.1 15.72,1.11 23.75,3.03 3.78,0.9 8.19,1.28 9.35,5.57 5.12,0.64 10.25,1.29 15.38,1.93 1.27,-0.37 1.69,0.39 2.08,1.2 0.77,1.17 4.73,-2.06 3.46,1.94 -0.49,1.02 -1.33,1.23 -2.25,1.23 -0.42,0 -0.86,-0.05 -1.29,-0.07 -3.69,-0.05 -7.37,-0.1 -11.06,-0.15 -1.17,0.04 -2.34,0.08 -3.5,0.13 -0.59,-0.02 -1.18,-0.03 -1.77,-0.05 -0.57,-0.01 -1.14,-0.03 -1.71,-0.05 -3.52,0.69 -7.04,1.37 -10.56,2.05 -0.16,0.11 -0.32,0.22 -0.47,0.33 0.32,0.08 0.65,0.12 0.97,0.21 12.72,0.62 25.47,0.28 38.2,0.23 10.69,-0.04 11.9,-2.33 6.18,-10.72 -0.61,-0.88 -1.01,-1.8 -1.06,-2.84 m -244.48,-13.46 c -8.75,-1.69 -17.5,-2.16 -26.21,-0.79 2.42,0.41 4.8,1.05 7.2,1.69 14.77,3.99 29.69,7.24 45.3,7.38 4.45,0.04 8.93,0.47 12.29,3.61 0.31,0.49 0.44,1.01 0.49,1.54 h 0.05 l 0.74,-0.11 c 0.63,-1.04 1.25,-1.48 1.86,-1.48 0.72,0 1.43,0.59 2.13,1.51 2.87,0.13 5.75,0.26 8.62,0.39 1.6,-0.37 3.09,-0.44 3.9,1.19 9.03,-0.06 17.67,2.2 26.46,3.51 1.61,-0.39 3.06,-0.42 3.82,1.22 1.71,0.12 3.42,0.25 5.13,0.37 0.59,0.04 1.18,0.07 1.77,0.1 0.7,0.34 1.38,0.71 2.05,1.1 1.68,0.31 3.39,0.52 5.08,0.8 2.71,0.25 5.41,0.46 8.13,0 10.56,1.26 21.22,3.56 31.76,2.63 15.7,-1.39 31.45,0.09 47.08,-1.64 1.37,0.26 2.43,0.85 3.23,1.72 0.31,-0.01 0.62,-0.02 0.93,-0.02 l -0.33,-0.52 c -1.43,-1.08 -3.05,-1.38 -4.74,-1.41 -0.17,0.05 -0.35,0.07 -0.53,0.12 -3.62,0.62 -7.24,0.55 -10.86,0.02 -9.38,-1.7 -18.94,-0.22 -28.34,-1.2 -49.4,-5.17 -98.41,-12.37 -147.01,-21.73 m 41.04,15.21 c 1.71,0.35 3.38,0.84 5.14,0.91 0.96,0.07 1.92,0.12 2.88,0.17 -0.07,-0.3 -0.14,-0.6 -0.21,-0.9 -1.75,-0.04 -3.5,-0.08 -5.25,-0.12 -1.61,-0.18 -3.22,-0.36 -4.83,-0.54 -0.05,0.07 -0.09,0.15 -0.14,0.2 0.8,0.05 1.6,0.15 2.41,0.28 m 12.78,1.64 c 1.34,0.3 2.66,0.63 4.03,0.78 -0.02,-0.22 -0.07,-0.43 -0.06,-0.64 -1.11,-0.2 -2.22,-0.39 -3.33,-0.59 -1.18,-0.03 -2.37,-0.07 -3.55,-0.11 -0.23,0.03 -0.45,0.06 -0.68,0.08 1.2,0.09 2.41,0.23 3.59,0.48 m 12.51,1.57 c 1.62,0.37 3.23,0.79 4.92,0.85 0.36,0.03 0.72,0.05 1.08,0.07 -0.12,-0.3 -0.24,-0.59 -0.37,-0.88 -1.14,-0.01 -2.28,-0.01 -3.42,-0.01 -1.13,-0.17 -2.25,-0.35 -3.38,-0.52 -0.74,0.01 -1.47,0.02 -2.21,0.03 1.13,0.1 2.26,0.22 3.38,0.46 m 11.79,1.48 c -0.75,-0.14 -1.5,-0.28 -2.24,-0.42 -0.31,0 -0.61,0.01 -0.92,0.02 1.06,0.08 2.11,0.21 3.16,0.4 m 8.25,1.82 c 1.2,0.3 2.41,0.57 3.65,0.65 -0.03,-0.31 -0.06,-0.62 -0.16,-0.93 -1.17,0.03 -2.33,0.07 -3.5,0.1 0,0.06 0,0.12 0.01,0.18 m 105.65,6.33 c -0.02,-0.05 -0.04,-0.1 -0.05,-0.14 -0.01,0.06 0,0.12 -0.01,0.18 0.02,-0.01 0.04,-0.03 0.06,-0.04 M -316.09,49.4 v 0.14 h 0.04 v 0.03 l 0.14,-0.02 c -0.07,-0.04 -0.11,-0.1 -0.18,-0.15 m -1.19,231.96 c 1.13,0.94 2.1,0.61 2.89,-0.26 -0.83,0.17 -1.78,0.25 -2.89,0.26 m -27.73,48.68 c 0,0 0.13,0.03 0.19,0.04 -0.04,-0.05 -0.09,-0.09 -0.13,-0.14 -0.02,0.03 -0.03,0.07 -0.06,0.1 m 278.88,-20.47 c 0.54,0.89 1.09,1.78 1.47,2.73 3.03,5.57 4.69,11.57 7.01,17.37 0.34,0.98 0.72,1.93 1.12,2.89 0.31,0.6 0.62,1.2 0.89,1.81 0.47,0.91 0.92,1.83 1.17,2.82 0.24,1.35 0.14,2.61 -1.06,3.61 0.41,-0.06 0.84,-0.05 1.33,0.09 3.78,2.95 4.21,7.32 6.1,11.07 4.66,9.23 6.33,19.54 12,28.41 -9.7,-24.36 -19.84,-48.58 -29.82,-72.86 -0.1,-0.32 -0.21,-0.64 -0.31,-0.96 -0.09,0 -0.18,0 -0.28,0.01 -0.03,-0.02 -0.05,-0.04 -0.08,-0.06 -0.01,0.72 -0.03,1.45 -0.04,2.17 0.17,0.3 0.35,0.6 0.5,0.9 m 50.96,90.33 c 0.09,0.59 0.08,1.17 0.01,1.76 0.15,0 0.3,-0.03 0.46,0.01 0.47,0.38 0.93,0.77 1.37,1.18 0.18,0.16 0.36,0.32 0.54,0.48 0.01,-0.1 0.03,-0.21 0.04,-0.31 -0.4,-0.42 -0.83,-0.81 -1.1,-1.31 -0.47,-0.78 -0.68,-1.62 -0.69,-2.5 0.02,-0.54 0.1,-1.07 0.22,-1.6 -0.04,-0.08 -0.08,-0.15 -0.12,-0.23 -0.12,-0.22 -0.16,-0.45 -0.16,-0.67 0,-0.09 0.01,-0.17 0.02,-0.26 -0.06,-0.01 -0.11,-0.01 -0.16,-0.03 -0.56,-0.41 -1,-0.89 -1.29,-1.47 -0.48,-1.13 -0.88,-2.27 -1.36,-3.38 -0.26,-0.63 -0.44,-1.26 -0.56,-1.91 0.14,3.51 1.28,6.9 2.78,10.24 m 2.37,5.48 c 0.12,0.17 0.17,0.27 0.19,0.33 0,-0.03 0,-0.08 0.01,-0.13 -0.07,-0.1 -0.14,-0.2 -0.22,-0.31 -0.02,-0.03 -0.02,-0.07 -0.03,-0.1 -0.19,-0.12 -0.25,-0.25 0.05,0.21 M 223.95,220.32 c -5.74,-0.41 -11.82,1.58 -17.19,-1.45 -8.27,-4.67 -17.8,-5.04 -27.03,-6.51 -1.15,0.24 -1.71,-0.34 -2.07,-1.18 l 0.19,-0.22 c -1.79,-0.44 -4.38,1.25 -5.32,-1.48 h -0.08 v -0.07 c -11.49,0.69 -22.55,-1.84 -33.62,-3.82 -16.36,-2.93 -32.41,-8.2 -49.33,-6.98 -13.49,0.98 -26.81,3.76 -40.26,5.38 -14.05,1.7 -27.73,5.14 -42.07,5.65 -10.37,0.38 -20.64,2.68 -31,3.86 -11.79,1.34 -23.63,2.38 -35.44,3.56 -0.61,-0.02 -1.23,-0.03 -1.84,-0.04 -5.24,0.78 -10.31,2.59 -15.78,1.9 -4.38,4.33 1.98,6.69 2.29,9.87 1.22,12.47 9.3,23.03 11.74,35.09 2.47,12.2 10.38,22.7 13.74,34.8 3.88,13.98 10.76,27.32 16.34,40.93 5.65,9.49 10.25,19.31 12.63,29.86 0.62,3.61 1.24,7.22 1.85,10.82 2.68,1.36 3.12,3.77 3.72,6.1 1.6,0.75 1.87,1.93 1.43,3.35 0.12,1.48 0.23,2.96 0.34,4.45 0.89,0.36 1.72,0.75 1.29,1.82 0.2,0.96 0.4,1.92 0.59,2.87 0.4,0.64 0.79,1.28 1.19,1.91 0.16,1.99 0.33,3.98 0.49,5.96 2.3,1.23 1.74,3.1 1.43,4.91 -0.43,0.82 1.25,4.09 -1.44,2.06 -3.23,-2.44 -4.93,-6.44 -7.29,-9.77 -8.47,-0.88 -9.53,-7.59 -12.78,-12.57 -1.07,-0.24 -2.19,-0.38 -3.21,-0.74 -8.12,-2.9 -9.48,-11.62 -16.92,-15.26 -1.77,-0.87 -1.58,-3.92 -0.51,-4.97 2.56,-2.51 0.34,-4.28 -0.39,-6.27 -2.43,-6.65 -4.98,-13.26 -7.49,-19.89 -0.44,-0.77 -0.4,-1.53 0.12,-2.26 0.11,-0.11 0.23,-0.2 0.34,-0.3 -0.08,-0.65 -0.16,-1.31 -0.24,-1.97 -0.77,-0.27 -1.54,-0.55 -1.54,-1.3 0,-0.14 0.03,-0.3 0.09,-0.48 l -7.5,-18.57 c -0.33,-0.69 -0.98,-1.21 -1.36,-1.87 l -0.54,0.17 c 1.28,-2.43 -2.1,-3.87 -1.68,-6.12 -0.93,-0.35 -1.7,-0.79 -1.31,-1.85 -0.2,-0.44 -0.36,-0.89 -0.47,-1.36 -0.99,-0.32 -1.68,-0.8 -1.25,-1.86 -0.17,-0.94 -0.34,-1.89 -0.5,-2.83 -1.74,-0.64 -1.73,-1.96 -1.66,-3.3 l -0.22,0.11 c -0.44,-0.6 -0.87,-1.2 -1.31,-1.81 -0.13,-0.24 -0.19,-0.48 -0.19,-0.72 0,-0.26 0.08,-0.52 0.23,-0.78 -0.18,-0.44 -0.35,-0.88 -0.51,-1.32 -0.93,-0.38 -1.6,-0.89 -1.2,-1.91 l -0.51,-2.79 c -1.74,-0.69 -1.83,-1.95 -1.48,-3.35 -1.47,-5.31 -5.72,-9.85 -5.64,-15.59 -1.89,-0.81 -2.77,-2.13 -3.7,-3.86 -5.04,-9.39 -8.04,-19.38 -11.82,-29.14 -1.91,-4.13 -3.74,-8.29 -5.77,-12.38 -2.04,-4.09 -4.78,-6.32 -10.8,-6.67 -11.88,-0.7 -24.03,-0.49 -35.51,-4.15 -4.19,-0.53 -8.62,0.05 -12.46,-2.08 -5.29,0.64 -7.33,4.8 -10.64,7.59 -10.16,8.6 -12.81,12.49 -26.75,8.11 -0.69,-0.96 -1.38,-1.92 -2.06,-2.87 -6.36,-3.33 -9.46,-8.8 -12.28,-14.45 -8.97,1.05 -17.43,0.79 -24.83,-4.99 -3.39,-2.64 -3.96,-7.42 -8.98,-8.64 -3.76,2.33 -8.09,2.98 -12.55,3.23 -3.74,-0.05 -6.14,-3.39 -9.91,-3.38 -0.03,0.12 -0.05,0.23 -0.09,0.34 -0.25,0.61 -0.56,1.19 -0.91,1.75 -0.03,0.3 -0.07,0.59 -0.1,0.89 0.29,0.99 -0.3,1.47 -1.3,1.71 -1.13,3.77 -2.05,7.61 -3.36,11.33 -1.31,3.71 -3.03,7.3 -5.75,10.56 h -0.01 c 0,0.02 0,0.03 0.01,0.05 v 0.02 c -0.08,1.53 -0.15,3.06 -0.22,4.59 0.31,1.07 -0.46,1.5 -1.41,1.82 -0.12,0.59 -0.07,1.27 -0.25,1.83 -0.18,0.56 -0.6,0.99 -1.68,1.08 v 0.02 c -0.01,0 -0.02,0 -0.02,0.01 -0.3,1.65 1.53,3.88 -1.69,4.73 -0.35,1.64 1.32,3.89 -1.82,4.69 -0.29,1.1 0.83,2.81 -1.67,2.93 -2.01,0.47 -1.63,2.06 -1.98,3.3 -0.51,0.05 -1.01,0.12 -1.5,0.23 -0.2,0.43 -0.21,0.86 -0.03,1.3 3.43,3.7 -1.67,6.25 -1.66,9.48 -1.81,9.74 -5.15,18.93 -12.51,26.67 -1.64,2.34 -2.63,4.98 -3.98,7.41 -4.47,7.99 -6.35,17.49 -15.94,22.72 -4.89,-1.16 -2.67,-4.14 -1.62,-6.19 6.48,-12.64 1.58,-22.74 -8.65,-31.79 -0.15,-0.12 -0.29,-0.25 -0.43,-0.37 -0.1,0.61 -0.19,1.22 -0.28,1.83 0.03,0.53 0.07,1.05 0.11,1.57 -0.04,2.67 -0.07,5.33 -0.1,8 -0.01,3.64 -0.01,7.29 -0.01,10.94 -0.23,3.21 2.09,6.7 -1.35,9.55 -0.14,4.1 -0.28,8.2 -0.41,12.3 0.18,0.27 0.27,0.54 0.27,0.83 0,0.22 -0.06,0.44 -0.17,0.67 0.05,1.08 0.1,2.17 0.14,3.26 h 0.15 c -0.01,0.06 -0.03,0.12 -0.04,0.17 0.74,0.49 1.48,0.98 2.21,1.47 l -0.42,0.23 -0.35,-0.32 c 0.27,1.11 -0.35,1.51 -1.42,1.54 0.01,0.03 0,0.06 0,0.09 -0.07,-0.01 -0.14,-0.01 -0.21,-0.01 0.24,3.36 -2.49,4.89 -5.19,6.43 -0.01,-0.01 -0.02,-0.02 -0.03,-0.04 -0.37,0.36 -0.75,0.72 -1.12,1.08 -0.15,-0.38 -0.3,-0.75 -0.45,-1.12 0.44,-0.62 0.89,-1.24 1.34,-1.86 0.15,-0.49 0.32,-0.98 0.49,-1.47 l -0.28,0.33 -0.42,-0.18 c 0.95,-2.1 -0.67,-4.85 2.08,-6.51 0.1,-1.5 0.19,-2.99 0.29,-4.48 0.04,-1.56 0.09,-3.12 0.13,-4.68 h 0.01 c -0.01,-1.56 -0.02,-3.12 -0.03,-4.68 0.06,-0.81 0.08,-1.62 0.08,-2.43 0,-7.11 -1.86,-14.3 1.13,-21.29 0.2,-3.08 0.41,-6.15 0.61,-9.23 -0.08,-0.21 -0.12,-0.39 -0.12,-0.55 0,-0.7 0.66,-1.03 1.45,-1.29 0.04,-0.49 0.19,-0.95 0.47,-1.37 0.26,-4.67 2.69,-8.62 5.34,-12.51 2.18,-6.29 4.36,-12.58 6.53,-18.86 -0.48,-3.65 1.79,-6.6 3.23,-9.76 0.4,-0.35 0.88,-0.58 1.37,-0.79 3.94,-10.08 7.9,-20.16 11.8,-30.25 0.6,-1.58 1.6,-2.59 3.45,-2.93 3.14,5 2.27,10.3 1.08,15.46 -0.8,3.44 -2.09,6.75 -0.21,9.96 5.57,-12.09 10.89,-24.28 16.12,-36.5 1.54,-3.61 2.55,-7.52 6.63,-9.82 0.07,-0.05 0.13,-0.1 0.2,-0.15 -2.5,-0.58 -3.81,1.48 -5.51,2.71 -0.78,0.58 -1.5,1.22 -2.18,1.88 0.18,1.03 -0.08,1.91 -1.59,2.33 -0.55,0.98 0.42,2.7 -1.81,2.87 -1.79,-0.13 -1.61,-0.71 -0.43,-1.51 0.05,-0.08 0.04,-0.15 0.08,-0.22 -0.14,0.09 -0.25,0.22 -0.39,0.31 -3.55,1.6 -4.76,7.67 -10.87,4.36 -1.09,-3.86 0.59,-6.77 4.01,-9.09 2.92,-7.89 8.19,-15.02 10.26,-23.39 -19.13,-0.39 -37.67,0.34 -56.19,-1.47 -8.96,-0.88 -17.97,1.51 -27.1,1.61 -10.93,0.13 -21.54,-2.23 -32.44,-1.88 -12.55,0.39 -25.05,-1.82 -37.19,-3.66 -20.68,-3.13 -41.56,-5.29 -62.1,-9.11 -9.56,-1.46 -19.42,-2.07 -28.59,-4.59 -14,-3.85 -28.37,-7.11 -41.16,-13.83 -6.24,-1.56 -13.33,-1.25 -17.96,-6.33 6,-6.28 14.24,-4.14 21.82,-4.46 2.93,-0.69 5.87,-1.38 8.8,-2.07 6.68,-2.8 4.31,-7.69 3.65,-12.19 8.65,-1.17 16.28,3.82 24.83,3.19 17.27,0.54 34.56,2.42 51.79,-0.45 6.54,-1.62 13.33,-2.18 19.96,-3.53 10.02,-2.04 20.3,-3.88 30.4,-5.05 15.66,-1.82 31.75,-0.69 47.66,-0.81 15.99,-2.35 31.4,-0.29 46.43,4.69 12.39,3.53 25.69,4.43 37.39,9.97 2.35,-0.15 4.71,-0.3 7.06,-0.45 1.08,-3.07 -3.68,-3.93 -3.32,-6.69 1.16,-8.86 -4.22,-16.61 -5.51,-25.06 -0.85,-5.61 -6.95,-10.78 -1.74,-16.88 -0.01,-0.97 -0.03,-1.95 -0.04,-2.92 -0.62,-0.06 -1.24,-0.12 -1.86,-0.17 -3.39,-0.67 -0.96,-3.08 -1.75,-4.53 l 0.11,-0.02 c 0,-0.02 0.01,-0.04 0.01,-0.06 -0.04,0.03 -0.08,0.05 -0.12,0.08 -1.66,-0.41 -1.86,-1.31 -1.83,-2.29 0.02,-0.76 0.17,-1.56 -0.12,-2.21 -0.75,-0.3 -1.38,-0.67 -1.38,-1.36 0,-0.16 0.04,-0.34 0.11,-0.54 -0.09,-0.81 -0.37,-1.67 -0.37,-2.46 0,-0.9 0.37,-1.72 1.81,-2.29 0.11,-0.96 0.64,-1.47 1.79,-1.31 -0.01,-0.06 -0.03,-0.12 -0.04,-0.17 0.03,-0.03 0.07,-0.05 0.1,-0.08 0.1,-1.19 -0.58,-2.71 1.71,-3.01 V 40.1 l 0.02,0.01 c 0.09,-1.01 0.19,-2.02 0.28,-3.03 -0.05,-0.17 -0.07,-0.32 -0.07,-0.46 0,-0.72 0.6,-1.1 1.4,-1.38 0.08,-0.48 0.25,-0.94 0.52,-1.37 -0.31,-1.29 -0.79,-2.63 1.17,-3.29 0.19,-0.96 0.38,-1.93 0.57,-2.89 -0.4,-1.05 0.29,-1.53 1.26,-1.86 v -0.01 c 0.14,-0.8 0.29,-1.61 0.43,-2.42 0.03,-0.15 0.05,-0.3 0.08,-0.45 0.02,-1.01 0.04,-2.03 0.05,-3.05 -0.3,-0.98 0.29,-1.5 1.22,-1.85 0.19,-0.45 0.35,-0.91 0.48,-1.38 -0.18,-1.04 -0.43,-2.09 -0.18,-3.03 0.18,-0.71 0.64,-1.35 1.61,-1.88 0.19,-1.78 0.37,-3.55 0.56,-5.32 0.35,0.02 0.7,0.03 1.05,0.05 0.16,1.75 0.32,3.51 0.48,5.26 1.72,0.74 1.74,2 1.32,3.39 0.03,1.03 0.07,2.07 0.11,3.1 l 0.35,-0.14 c 1.16,0.7 1.6,1.62 1.48,2.73 -0.02,0.19 -0.05,0.39 -0.11,0.6 0.01,0.57 0.01,1.13 0.02,1.7 0,0.47 0.01,0.95 0.01,1.42 0,1.02 0,2.04 0.01,3.05 0.14,1.55 0.28,3.09 0.42,4.63 0.02,0.08 0.03,0.15 0.05,0.23 0.32,1.43 0.64,2.86 0.96,4.29 1.25,5.6 2.51,11.19 3.76,16.79 1.32,5.93 2.65,11.87 3.98,17.8 3.2,1.47 1.21,4.15 1.86,6.21 0.96,0.32 1.75,0.75 1.33,1.85 0.14,2.01 0.28,4.01 0.42,6.02 0.66,0.58 1.32,1.15 1.98,1.72 -0.14,1.06 -0.28,2.12 -0.42,3.18 0.04,1.56 0.08,3.12 0.13,4.67 3.22,1.86 1.82,4.36 1.48,6.71 0.5,0.45 0.99,0.91 1.44,1.42 3.84,1.73 3.72,-2.03 5.44,-3.17 2.88,-1.9 4.92,-5.11 9.44,-3.67 5.28,0.02 10.57,0.04 15.85,0.06 0.49,-0.28 0.97,-0.57 1.46,-0.85 0.16,0.37 0.32,0.74 0.48,1.12 l 0.09,-0.07 c 0.52,0.58 1.17,1.06 1.65,1.67 l 0.17,-0.12 c 1.24,0.05 2.48,0.1 3.73,0.15 3.19,-0.06 5.4,-1.51 7.46,-3.17 2.07,-1.66 3.97,-3.54 6.55,-4.48 4.7,-0.61 9.35,-0.82 13.54,1.66 3.9,2.31 5.66,1 8.16,-2.28 8.25,-10.81 15.54,-11.72 28.31,-4.4 0.98,0.18 1.74,0.52 1.37,1.6 0.77,0.96 1.54,1.91 2.32,2.87 0.3,0.7 0.9,1.24 1.28,1.88 0.14,0.97 0.27,1.94 0.41,2.91 0.81,0.24 1.49,0.56 1.49,1.29 0,0.15 -0.03,0.31 -0.09,0.5 v 3.02 c 0,0.51 0.01,1.02 0.02,1.53 h -0.01 c 0.22,0.48 0.37,0.97 0.45,1.48 3.84,-1.94 8.74,-0.16 12.4,-2.72 3.02,-2.72 6.94,-2.61 10.8,-2.57 10.66,0.11 21.33,-0.03 32,-0.12 9.96,-0.08 19.36,1.81 28.4,5.35 8.44,3.4 13.13,1.25 19.93,-9.13 1.1,-2.59 2.21,-5.17 3.31,-7.76 3.2,-6.42 3.44,-14.16 10.69,-18.78 -0.28,-0.2 -0.57,-0.4 -0.88,-0.61 1.14,-3.2 1.98,-6.51 3.18,-9.68 1.4,-3.71 3.28,-7.25 6.69,-10.19 4.27,-7.59 8.04,-15.36 10.76,-23.5 -0.15,-7.18 6.33,-12.18 7.99,-18.72 4.38,-17.17 18.11,-25.21 36.21,-29.11 0.04,-0.01 0.07,0 0.1,-0.01 0.07,-0.26 0.14,-0.51 0.2,-0.77 0.45,-0.24 0.89,-0.49 1.32,-0.76 -0.02,0.05 -0.03,0.08 -0.04,0.12 v 0.92 c 2.39,0.79 3.28,-1.56 3.2,-3.4 2.4,-2.05 4.59,-4.39 7.25,-6.41 l 1.79,2.46 c 0.33,-0.67 0.03,-2.25 -0.57,-3.34 1.41,-0.96 2.97,-1.81 4.75,-2.47 0.66,8.18 -6.84,13.51 -6.77,20.68 -0.56,0.72 -1.12,1.45 -1.68,2.17 0.2,0.54 0.44,1.05 0.74,1.51 C 18.99,-3.09 12.97,6.64 8.61,16.86 8.07,19.15 7.2,21.4 6.27,23.52 3.48,29.86 1.24,36.48 -3.16,42.16 c -0.7,0.92 -1.47,1.82 -2.31,2.69 -1.39,3.13 -2.79,6.25 -4.19,9.38 -0.02,0.99 -0.04,1.98 -0.06,2.97 0.03,0.62 0.07,1.25 0.11,1.87 -1.02,4.58 -4.34,8.15 -6.62,12.17 -7.01,12.32 -10.26,26.21 -20.3,37.3 -4.25,4.69 -2.76,7.09 3.99,7.11 4.69,0.98 9.38,1.95 14.07,2.92 8.93,0.38 17.36,2.26 25.06,6.38 5.78,3.91 12.82,4.82 19.61,6.3 7.91,0.77 15.27,2.78 21.49,7.37 34.08,11.38 67.85,23.71 103.34,31.25 10.98,2.34 22.15,5.98 33.95,4.81 5.96,-0.09 12.46,-1.57 15.93,4.76 -0.6,0.5 -1.2,1 -1.8,1.51 -7.86,5.02 -16.96,5.21 -26.13,5.15 -0.76,-0.11 -1.5,-0.15 -2.25,-0.2 0.3,1.51 1.7,2.36 3.47,3.19 3.69,1.73 8.77,3.05 10.47,5.85 8.01,13.24 21.66,18.68 36.9,22.24 2.36,0.55 2.77,1.39 2.38,3.14 M -2.45,-0.92 C -1.53,-1.53 0.91,-1.53 0,0 -0.92,1.83 -3.06,0 -2.45,-0.92 m 5.81,7.65 c -0.31,0 -0.31,-0.31 0,-0.31 0.31,0 0.31,0.31 0,0.31 m 0,0 c -0.31,0 -0.31,-0.31 0,-0.31 0.31,0 0.31,0.31 0,0.31 M 0,0 C -0.92,1.83 -3.06,0 -2.45,-0.92 -1.53,-1.53 0.91,-1.53 0,0 M 0,0 C -0.92,1.83 -3.06,0 -2.45,-0.92 -1.53,-1.53 0.91,-1.53 0,0 m 3.36,6.73 c -0.31,0 -0.31,-0.31 0,-0.31 0.31,0 0.31,0.31 0,0.31 m 0,0 c -0.31,0 -0.31,-0.31 0,-0.31 0.31,0 0.31,0.31 0,0.31 M 0,0 C -0.92,1.83 -3.06,0 -2.45,-0.92 -1.53,-1.53 0.91,-1.53 0,0 M 0,0 C -0.92,1.83 -3.06,0 -2.45,-0.92 -1.53,-1.53 0.91,-1.53 0,0 m 3.36,6.73 c -0.31,0 -0.31,-0.31 0,-0.31 0.31,0 0.31,0.31 0,0.31 m 0,0 c -0.31,0 -0.31,-0.31 0,-0.31 0.31,0 0.31,0.31 0,0.31 M 0,0 C -0.92,1.83 -3.06,0 -2.45,-0.92 -1.53,-1.53 0.91,-1.53 0,0 M 0,0 C -0.92,1.83 -3.06,0 -2.45,-0.92 -1.53,-1.53 0.91,-1.53 0,0 m 3.36,6.73 c -0.31,0 -0.31,-0.31 0,-0.31 0.31,0 0.31,0.31 0,0.31 m 0,0 c -0.31,0 -0.31,-0.31 0,-0.31 0.31,0 0.31,0.31 0,0.31 M 0,0 C -0.92,1.83 -3.06,0 -2.45,-0.92 -1.53,-1.53 0.91,-1.53 0,0 M 0,0 C -0.92,1.83 -3.06,0 -2.45,-0.92 -1.53,-1.53 0.91,-1.53 0,0 m 3.36,6.73 c -0.31,0 -0.31,-0.31 0,-0.31 0.31,0 0.31,0.31 0,0.31 m 0,0 c -0.31,0 -0.31,-0.31 0,-0.31 0.31,0 0.31,0.31 0,0.31 M 0,0 C -0.92,1.83 -3.06,0 -2.45,-0.92 -1.53,-1.53 0.91,-1.53 0,0"
             style="fill:#010101;fill-opacity:1;fill-rule:nonzero;stroke:none"
             id="path26"
             inkscape:connector-curvature="0" /></g><g
           id="g28"
           transform="translate(761.1832,287.8872)"><path
             d="M 0,0 C -0.92,1.83 -3.06,0 -2.45,-0.92 -1.53,-1.53 0.91,-1.53 0,0 m 3.36,6.73 c -0.31,0 -0.31,-0.31 0,-0.31 0.31,0 0.31,0.31 0,0.31 m 0,0 c -0.31,0 -0.31,-0.31 0,-0.31 0.31,0 0.31,0.31 0,0.31 M 0,0 C -0.92,1.83 -3.06,0 -2.45,-0.92 -1.53,-1.53 0.91,-1.53 0,0 M 0,0 C -0.92,1.83 -3.06,0 -2.45,-0.92 -1.53,-1.53 0.91,-1.53 0,0 m 3.36,6.73 c -0.31,0 -0.31,-0.31 0,-0.31 0.31,0 0.31,0.31 0,0.31 m 0,0 c -0.31,0 -0.31,-0.31 0,-0.31 0.31,0 0.31,0.31 0,0.31 M 0,0 C -0.92,1.83 -3.06,0 -2.45,-0.92 -1.53,-1.53 0.91,-1.53 0,0 M 0,0 C -0.92,1.83 -3.06,0 -2.45,-0.92 -1.53,-1.53 0.91,-1.53 0,0 m 3.36,6.73 c -0.31,0 -0.31,-0.31 0,-0.31 0.31,0 0.31,0.31 0,0.31 m 0,0 c -0.31,0 -0.31,-0.31 0,-0.31 0.31,0 0.31,0.31 0,0.31 M 0,0 C -0.92,1.83 -3.06,0 -2.45,-0.92 -1.53,-1.53 0.91,-1.53 0,0 M 0,0 C -0.92,1.83 -3.06,0 -2.45,-0.92 -1.53,-1.53 0.91,-1.53 0,0 m 3.36,6.73 c -0.31,0 -0.31,-0.31 0,-0.31 0.31,0 0.31,0.31 0,0.31 m 0,0 c -0.31,0 -0.31,-0.31 0,-0.31 0.31,0 0.31,0.31 0,0.31 M 0,0 C -0.92,1.83 -3.06,0 -2.45,-0.92 -1.53,-1.53 0.91,-1.53 0,0 M 0,0 C -0.92,1.83 -3.06,0 -2.45,-0.92 -1.53,-1.53 0.91,-1.53 0,0 m 3.36,6.73 c -0.31,0 -0.31,-0.31 0,-0.31 0.31,0 0.31,0.31 0,0.31 m 0,0 c -0.31,0 -0.31,-0.31 0,-0.31 0.31,0 0.31,0.31 0,0.31 M 0,0 C -0.92,1.83 -3.06,0 -2.45,-0.92 -1.53,-1.53 0.91,-1.53 0,0 M 0,0 C -0.92,1.83 -3.06,0 -2.45,-0.92 -1.53,-1.53 0.91,-1.53 0,0 m 3.36,6.42 c 0.31,0 0.31,0.31 0,0.31 -0.31,0 -0.31,-0.31 0,-0.31 M -2.45,-0.92 C -1.53,-1.53 0.91,-1.53 0,0 -0.92,1.83 -3.06,0 -2.45,-0.92 m 5.81,7.65 c -0.31,0 -0.31,-0.31 0,-0.31 0.31,0 0.31,0.31 0,0.31 m 0,0 c -0.31,0 -0.31,-0.31 0,-0.31 0.31,0 0.31,0.31 0,0.31 M 0,0 C -0.92,1.83 -3.06,0 -2.45,-0.92 -1.53,-1.53 0.91,-1.53 0,0 M 0,0 C -0.92,1.83 -3.06,0 -2.45,-0.92 -1.53,-1.53 0.91,-1.53 0,0 m 3.36,6.73 c -0.31,0 -0.31,-0.31 0,-0.31 0.31,0 0.31,0.31 0,0.31 m 0,0 c -0.31,0 -0.31,-0.31 0,-0.31 0.31,0 0.31,0.31 0,0.31 M 0,0 C -0.92,1.83 -3.06,0 -2.45,-0.92 -1.53,-1.53 0.91,-1.53 0,0 M 0,0 C -0.92,1.83 -3.06,0 -2.45,-0.92 -1.53,-1.53 0.91,-1.53 0,0 m 3.36,6.73 c -0.31,0 -0.31,-0.31 0,-0.31 0.31,0 0.31,0.31 0,0.31 m 0,0 c -0.31,0 -0.31,-0.31 0,-0.31 0.31,0 0.31,0.31 0,0.31 M 0,0 C -0.92,1.83 -3.06,0 -2.45,-0.92 -1.53,-1.53 0.91,-1.53 0,0 M 0,0 C -0.92,1.83 -3.06,0 -2.45,-0.92 -1.53,-1.53 0.91,-1.53 0,0 m 3.36,6.73 c -0.31,0 -0.31,-0.31 0,-0.31 0.31,0 0.31,0.31 0,0.31 m 0,0 c -0.31,0 -0.31,-0.31 0,-0.31 0.31,0 0.31,0.31 0,0.31 M 0,0 C -0.92,1.83 -3.06,0 -2.45,-0.92 -1.53,-1.53 0.91,-1.53 0,0 M 0,0 C -0.92,1.83 -3.06,0 -2.45,-0.92 -1.53,-1.53 0.91,-1.53 0,0 m 3.36,6.73 c -0.31,0 -0.31,-0.31 0,-0.31 0.31,0 0.31,0.31 0,0.31 m 0,0 c -0.31,0 -0.31,-0.31 0,-0.31 0.31,0 0.31,0.31 0,0.31 M 0,0 C -0.92,1.83 -3.06,0 -2.45,-0.92 -1.53,-1.53 0.91,-1.53 0,0"
             style="fill:#010101;fill-opacity:1;fill-rule:nonzero;stroke:none"
             id="path30"
             inkscape:connector-curvature="0" /></g><g
           id="g32"
           transform="translate(220.5532,426.5721)"><path
             d="m 0,0 h -0.61 c -0.3,0 -1.53,0.91 -1.83,0.91 -0.31,0 -2.14,-1.52 -2.45,-1.52 L -5.5,0 v 8.26 c 0.92,0.3 2.44,1.22 2.44,2.45 0,1.22 -1.22,2.14 -0.91,3.36 0,0.31 0.91,2.14 0.91,2.45 v 8.26 l 0.62,0.61 c 0.3,-1.53 0.91,-9.79 0.91,-11.32 V 9.18 C -1.53,8.87 0,7.03 0,6.73 0.31,5.5 0.31,1.22 0,0 m -3.97,-15.61 c -0.31,-1.52 -2.45,0.92 -2.45,0.92 -1.22,2.14 -1.22,5.2 2.45,3.98 0.3,0 0.91,-0.31 0.91,-0.61 z m -4.9,-23.86 c -0.92,1.84 1.84,3.06 3.37,2.45 0.3,-1.53 -2.45,-4.59 -3.37,-2.45 m -0.92,-13.15 v 1.83 c 0.31,0.92 1.84,0.92 2.45,0.61 0.61,-1.53 -0.61,-2.75 -2.45,-2.44 m -1.53,61.8 v 1.53 c -0.3,0.3 -4.28,4.28 -4.28,5.81 0,3.06 8.26,-1.53 9.18,-2.45 -1.53,0.31 -3.37,-9.48 -4.9,-4.89 m 0.62,-23.87 c 0,0 -0.62,0.61 -0.62,0.92 v 0.61 h 0.62 z m -1.53,-39.46 c -1.23,-0.62 -3.37,0.91 -3.98,1.53 v 0.91 c 0.61,0.31 5.51,-0.61 3.98,-2.44 m -3.98,29.67 c 0.31,-0.3 3.06,-2.14 3.98,-3.36 -0.92,-2.45 -3.98,1.22 -4.9,1.53 -0.3,0.61 0.31,1.53 0.92,1.83 m -4.28,-2.14 c -0.31,0 -0.31,0.61 0,0.61 0.3,0 0.3,-0.61 0,-0.61 m -1.53,59.35 c -0.31,0 -0.31,0.62 0,0.62 0.3,0 0.3,-0.62 0,-0.62 m 6.42,-3.97 c 1.53,0.91 2.45,-1.53 0.92,-2.45 -0.31,0 -0.92,0.61 -0.92,0.92 z m 7.65,3.36 c 0.31,-1.53 -0.61,-2.75 -1.84,-3.36 -0.3,0 -0.91,0.61 -0.91,0.91 -0.31,0.92 1.53,3.37 2.75,2.45 m 0.61,-9.18 2.45,-3.06 c 0,-0.3 -0.61,-0.91 -0.61,-0.91 -0.62,0 -2.45,0.61 -2.45,0.91 -0.31,0.31 -0.92,3.37 -0.92,3.98 0.92,0.31 1.23,-0.3 1.53,-0.92 m 2.45,11.63 c 0.61,0 0.61,-0.92 0,-0.92 -0.61,0 -0.61,0.92 0,0.92 m -43.44,-141.35 c -0.31,0 -0.92,0.62 -0.92,0.92 -0.62,0.92 1.53,2.14 1.83,2.45 2.14,0 -0.3,-3.06 -0.91,-3.37 M 14.08,49.25 c -0.31,3.37 -0.92,11.63 -0.92,11.63 L 12.55,61.8 H -42.83 V -68.23 c 0,-0.3 -1.22,-4.89 -1.53,-6.42 -4.28,-20.19 -16.52,-28.15 -37.02,-29.68 l -0.61,-0.61 v -51.09 c 0,-0.31 0.92,-0.92 1.53,-0.92 h 6.73 c 20.5,1.22 43.45,5.51 59.97,18.97 18.35,14.99 27.84,38.24 27.84,61.8 V 41.3 c -1.23,0.92 0,6.73 0,7.95"
             style="fill:#010101;fill-opacity:1;fill-rule:nonzero;stroke:none"
             id="path34"
             inkscape:connector-curvature="0" /></g><path
           d="m 284.809,346.108 h 0.918 v 0.918 h -0.918 z"
           style="fill:#010101;fill-opacity:1;fill-rule:nonzero;stroke:none"
           id="path36"
           inkscape:connector-curvature="0" /><g
           id="g38"
           transform="translate(275.0182,374.8662)"><path
             d="M 0,0 1.531,-1.531 3.367,0 C 2.753,1.529 0.613,1.529 0,0"
             style="fill:#010101;fill-opacity:1;fill-rule:nonzero;stroke:none"
             id="path40"
             inkscape:connector-curvature="0" /></g><g
           id="g42"
           transform="translate(270.7359,360.1815)"><path
             d="M 0,0 C 0,0 -0.307,-2.142 -0.613,-3.367 V -4.284 L 0.918,-5.813 C 2.753,-4.896 1.222,0 0.918,0 Z"
             style="fill:#010101;fill-opacity:1;fill-rule:nonzero;stroke:none"
             id="path44"
             inkscape:connector-curvature="0" /></g><g
           id="g46"
           transform="translate(301.3297,310.0053)"><path
             d="M 0,0 C -0.307,1.224 -1.836,1.224 -2.447,0.918 V 0 C -1.836,-1.222 -0.611,-1.222 0,0"
             style="fill:#010101;fill-opacity:1;fill-rule:nonzero;stroke:none"
             id="path48"
             inkscape:connector-curvature="0" /></g><g
           id="g50"
           transform="translate(255.1335,308.4764)"><path
             d="M 0,0 C -0.307,0 -0.307,-0.918 0,-0.918 0.611,-0.918 0.611,0 0,0"
             style="fill:#010101;fill-opacity:1;fill-rule:nonzero;stroke:none"
             id="path52"
             inkscape:connector-curvature="0" /></g><path
           d="m 318.463,402.095 h 0.918 v 0.611 h -0.918 z"
           style="fill:#010101;fill-opacity:1;fill-rule:nonzero;stroke:none"
           id="path54"
           inkscape:connector-curvature="0" /><g
           id="g56"
           transform="translate(385.7732,323.1621)"><path
             d="m 0,0 c -2.45,-1.22 -4.29,0.31 -5.51,2.45 -0.31,0.3 -0.31,1.22 0,1.53 C -4.29,4.59 0.91,1.53 0,0 m -4.9,-33.04 c -0.3,0 -1.22,0.3 -1.53,0.92 l 0.92,0.91 c 0.31,-0.3 0.92,-1.22 0.61,-1.83 m -1.53,28.76 c 0.61,0 0.61,-0.62 0,-0.62 -0.61,0 -0.61,0.62 0,0.62 m -3.97,60.88 -3.37,1.84 c -1.53,0.91 -0.92,4.89 -0.92,5.5 0.31,1.84 3.37,0.92 4.29,2.45 0,0.61 1.22,4.59 1.52,5.2 0.31,0 0.92,1.53 0.92,1.53 2.76,2.75 0.31,-4.59 0,-5.81 -0.61,-0.92 -1.22,-2.76 -0.92,-3.98 0.62,-2.14 3.98,-8.26 -1.52,-6.73 m 0.61,-25.39 h 0.91 V 30.29 H -9.79 Z M -10.4,17.13 h -0.92 c -0.92,0.31 -3.06,0.92 -3.37,0.92 l -1.53,1.53 c 0.61,1.22 1.23,0.92 2.45,1.83 l 0.92,0.62 c 4.89,6.73 6.12,0 2.45,-4.9 m -4.29,-7.34 c -2.45,1.53 0.92,6.42 5.81,0 -0.61,-2.14 -4.58,-0.92 -5.81,0 m 4.9,-15.6 -5.82,5.81 v 1.53 c 3.37,1.53 8.26,-3.98 5.82,-7.34 M -20.5,0 c -0.31,0.31 -0.31,1.22 0,1.53 1.83,2.14 3.06,0.92 3.36,3.36 0.31,-1.83 -0.61,-5.81 -3.36,-4.89 m 4.89,28.76 c 1.23,0.91 2.76,-2.45 0.92,-2.45 -0.3,0 -0.92,0.61 -0.92,0.92 z m 12.55,16.52 c 0.61,-1.84 0.3,-4.59 -1.84,-5.2 -0.3,0 -0.61,0.61 -0.61,0.92 -0.31,1.22 0.61,4.89 2.45,4.28 m -2.45,8.87 c 0.61,-0.61 1.22,-1.53 1.53,-2.45 -0.61,-0.3 -1.22,0.31 -1.53,0.92 z m -21.42,19.89 h -1.83 v 6.42 c -1.22,0.61 -2.45,-1.22 -3.98,-0.92 -0.61,-0.61 -2.14,-3.97 -2.45,-4.89 -1.22,-3.06 1.53,-3.67 0.92,-7.34 v -1.53 h 2.45 v -4.9 c -1.84,3.67 -9.18,2.14 -11.63,1.53 -0.92,-0.3 -3.06,-7.65 -3.98,-3.97 -0.61,1.83 0.92,8.56 2.45,10.4 l 2.45,1.83 c 3.67,3.06 -4.59,4.29 3.36,7.35 0.31,0.3 1.54,0.91 1.54,0.91 1.22,1.53 -1.54,3.06 -0.92,4.9 3.06,6.73 1.53,5.81 3.36,12.23 0,0.31 0.92,0.31 0.92,0 0.31,-0.3 0.61,-2.14 0.61,-2.44 0,-0.31 1.84,-2.14 1.84,-2.45 0,-0.31 -1.84,-2.14 -1.84,-2.45 -0.3,-1.83 0,-4.28 1.84,-5.81 2.75,-2.14 3.36,4.28 4.89,4.89 3.06,-4.58 0.31,-8.56 0,-13.76 m -2.44,-11.02 c -0.31,0 -0.31,0.62 0,0.62 0.3,0 0.3,-0.62 0,-0.62 m -21.42,-0.61 -0.92,-0.92 v 0.92 z M -87.81,28.76 v 0.91 l 0.92,-0.91 z M -42.53,5.81 h -43.75 c -2.45,0 1.53,7.96 0.92,10.71 -1.53,0.92 -5.2,-9.79 -3.98,-0.92 v 4.9 c 2.14,3.06 2.45,-2.76 6.43,2.45 4.58,5.5 -4.29,14.07 4.28,12.23 3.36,11.32 7.65,23.87 10.71,35.49 v 1.53 c -3.06,1.22 -5.51,-8.87 -8.26,-2.45 l -0.92,-0.91 c 1.53,-1.84 2.45,-4.9 1.53,-7.35 -0.92,-3.67 -8.26,4.59 -11.32,-4.89 v -3.98 c -1.53,-6.73 -7.34,-10.09 -4.9,-17.44 0.92,-2.75 -3.36,-4.59 -4.28,-6.42 -1.22,-3.06 -3.06,-13.46 0,-15.61 V 1.53 c -2.14,-3.06 1.53,-7.96 1.84,-11.32 2.14,-1.84 5.81,10.4 11.32,0.61 4.28,1.53 5.81,12.55 10.7,4.28 -2.75,0.92 -5.81,-2.44 -4.89,-4.89 1.22,-3.37 10.09,-2.14 3.36,-6.73 -6.42,-3.98 -5.81,1.83 -11.62,0 0,-0.61 -0.61,-4.9 -0.92,-5.81 0,0 -0.31,-0.62 -0.61,-0.62 -1.53,0.62 -1.22,3.06 -3.37,3.06 -2.75,0 -0.91,-7.64 -6.42,-3.97 l -4.28,3.36 h -0.92 c 1.22,-2.45 -1.53,-5.2 -3.06,-6.73 -4.9,6.43 -7.04,-2.14 -9.18,-5.81 -0.92,-1.84 -4.28,-1.53 -4.9,-3.06 -0.3,-0.92 -0.91,-4.28 -0.91,-4.9 -2.45,-1.83 -2.45,-0.61 -4.9,0.62 l -3.36,1.83 c 0,1.53 -0.92,7.04 -0.61,9.79 h -1.84 c -2.76,-1.22 -0.61,-7.65 -7.96,-4.28 -4.58,2.45 6.74,5.51 5.51,11.62 0,0.31 -0.31,0.92 -0.61,0.92 -0.31,0 -3.06,0.61 -3.37,0.61 -0.3,0.31 -0.3,3.37 0,4.29 0,0.3 1.23,1.22 1.53,1.53 0.62,0.61 1.84,2.14 1.84,2.44 v 2.45 c 0,0.31 1.53,3.06 1.53,3.37 0.92,3.97 -4.28,14.38 -3.98,14.68 3.67,2.45 6.12,-11.32 7.35,-9.79 v 6.73 c 0,0.31 -0.92,1.23 -0.92,1.53 -1.84,6.12 0.92,3.98 1.53,8.26 0.61,2.76 -0.92,7.35 -0.61,10.71 3.36,1.22 3.05,-2.45 6.42,-1.84 3.36,0.92 -3.06,4.59 -3.06,5.2 -0.61,2.15 3.36,2.76 4.9,2.45 0,0.61 0.3,4.9 0.61,5.51 0,0.31 1.83,1.53 1.83,1.84 0,0.3 -2.14,12.85 2.45,5.81 3.98,2.75 -1.22,3.06 0,6.42 0.61,2.14 3.37,-0.3 3.37,4.9 2.14,0.92 1.83,-1.53 4.89,0 2.45,1.22 0.31,5.2 4.9,6.73 0,0.61 0.61,3.98 0.61,4.89 0.3,0.31 2.45,2.15 2.45,2.45 2.75,4.29 1.22,4.59 2.75,8.87 0.31,1.53 2.75,1.23 3.06,2.45 0.31,1.23 2.14,8.57 1.83,9.18 l -2.44,2.45 c -1.53,2.14 2.75,3.36 3.06,4.89 0.91,2.14 -3.06,6.43 0,8.26 0.3,0.31 4.89,3.37 6.73,2.45 0.91,4.59 -1.53,6.43 -5.82,6.73 v 2.45 h 5.82 c 1.22,0 6.11,0.92 6.42,2.45 -0.92,1.22 -6.42,2.75 -6.42,3.06 2.14,4.28 11.32,-1.23 11.32,-3.06 v -4.29 c 0,-0.3 0.61,-0.61 0.91,-0.61 0,0 0.62,1.23 0.92,1.53 l 4.9,4.9 c 5.2,-1.84 1.53,-4.9 2.44,-8.26 4.9,1.53 5.82,-8.57 9.8,-6.43 0.91,0.31 2.44,3.06 4.28,3.06 4.59,0 2.75,-3.06 1.53,-5.51 -0.92,-0.92 -1.53,1.84 -2.45,2.45 -1.84,-4.89 -2.14,-10.4 -1.53,-15.6 0,-1.53 2.75,-1.23 3.06,-0.92 0.61,0.31 3.06,2.75 3.37,3.37 2.44,-2.15 3.67,-8.57 -0.92,-9.18 1.53,5.2 -5.51,3.36 -6.43,0.92 2.45,-1.84 8.26,-10.1 7.35,-13.16 -1.23,0.3 -3.06,3.06 -3.98,2.45 0.3,-1.53 0.3,-3.37 -0.92,-3.98 h -0.92 c 0,3.67 -2.44,3.37 -3.06,6.43 -4.59,0.91 -8.26,-2.45 -6.73,-7.35 L -42.53,9.79 c 0.31,-0.92 0.92,-3.06 0.92,-3.37 0,-0.3 -0.61,-0.61 -0.92,-0.61 m -21.42,-18.05 v 0.61 h 1.53 c -0.3,-0.3 -0.91,-0.91 -1.53,-0.61 m -2.44,13.46 c -0.31,0 -0.31,0.61 0,0.61 0.3,0 0.3,-0.61 0,-0.61 m -65.78,18.36 c 3.37,1.83 1.22,-4.9 0,-3.06 -0.31,0 -0.92,2.14 -0.92,2.45 0,0 0.61,0.61 0.92,0.61 m 27.23,46.2 c 0,-0.62 -0.92,-0.62 -0.92,0 0,0.61 0.92,0.61 0.92,0 m 8.87,66.39 v -1.53 l -0.61,0.91 z m 1.84,-9.79 h -0.92 c -0.31,0.3 -0.92,1.22 -0.92,1.53 v 1.83 c 2.14,0.92 1.84,-2.75 1.84,-3.36 m 6.42,18.97 v -1.84 l -0.92,0.92 z m 0.92,-10.41 c 0.3,0 0.3,-0.61 0,-0.61 -0.31,0 -0.31,0.61 0,0.61 m 6.42,14.38 c -1.53,-0.61 -3.06,0.92 -3.97,1.84 -8.26,4.89 6.11,5.2 3.97,-1.84 M -82,156.95 c 3.98,6.12 9.18,-4.29 5.82,-4.9 -0.31,0 -0.92,0.31 -0.92,0.61 0,0.31 -0.92,1.84 -0.92,1.84 -0.31,0.61 -5.2,0.61 -3.98,2.45 m 18.05,-15.6 c 0.31,-0.31 2.15,-0.62 2.45,-0.92 0.92,-0.92 -0.61,-3.67 -1.53,-3.98 h -4.89 c 1.22,-4.59 -6.12,-7.34 -4.29,-10.71 -2.75,-1.53 -4.28,2.14 -5.81,3.06 -0.31,0 -1.53,0.61 -1.53,0.92 -0.3,0.31 -1.53,2.45 -1.53,3.36 0,0.31 -0.61,2.45 -0.92,2.45 -0.91,0.61 -3.67,-0.92 -4.28,0.92 -1.22,3.67 3.37,2.75 5.2,3.06 5.2,1.22 7.65,4.89 12.24,6.73 1.22,0.61 3.98,-4.28 4.89,-4.89 m 7.35,-1.84 c 5.5,2.45 6.42,-5.81 10.71,0 0.91,-1.84 -1.23,-2.45 -1.54,-3.98 v -3.36 c -0.91,-2.76 -4.58,-1.84 -4.89,-6.43 v -3.36 c 0,-0.31 -2.45,-2.15 -2.45,-2.45 v -0.92 c 0.92,-0.3 2.14,0.92 3.06,0.92 1.53,0 2.45,-7.34 -1.53,-4.9 -0.61,0.31 -4.59,2.45 -4.89,3.37 -0.62,1.53 -1.53,8.26 -3.37,8.87 -0.3,0 -1.22,-0.61 -1.53,-0.92 -2.14,4.9 5.82,7.04 6.43,9.18 0.3,1.84 -2.15,2.45 0,3.98 m 12.23,-18.05 c 0.62,1.22 2.15,1.22 2.76,0 -0.31,-0.92 -1.84,-0.92 -2.76,-0.61 z m 0.92,13.15 c 0.61,0 0.61,-0.61 0,-0.61 -0.61,0 -0.61,0.61 0,0.61 m 9.18,-27.84 h 1.53 c -0.3,-0.61 -1.22,-1.22 -1.53,-0.91 z m 6.43,7.35 c 1.22,-3.37 -3.68,-3.98 -5.82,-2.45 -1.22,7.65 4.9,5.51 5.82,2.45 m -3.98,9.17 c 1.22,-2.14 0,-4.89 -1.84,-2.44 -0.3,0.92 1.23,3.06 1.84,2.44 M -26.01,93 v -0.61 c -0.3,0 -0.3,0.61 0,0.61 m 68.84,-144.09 -72.81,216.3 h -56.3 c -2.75,0 -6.73,-16.22 -7.95,-20.5 l -5.2,-15.91 c 0,0 -0.31,-1.22 -0.62,-1.53 l -14.99,-43.44 c 0,-5.81 -3.67,-9.49 -4.89,-14.99 v -3.06 c -0.31,-1.84 -1.84,-2.45 -2.45,-4.29 -11.93,-36.71 -24.48,-72.5 -37.02,-109.22 0,-0.61 -0.92,-3.67 -0.61,-4.89 0,-0.31 0.61,-0.92 0.61,-0.92 h 47.12 l 7.34,1.84 c 0,0 0.31,0.91 0.61,1.52 l 5.81,18.97 c 0.61,0.92 0.92,0.92 1.84,0.92 19.58,-0.3 65.47,-0.92 65.47,-0.92 l 0.92,-0.91 7.03,-21.42 h 65.17 c 1.22,0 0.92,2.45 0.92,2.45"
             style="fill:#010101;fill-opacity:1;fill-rule:nonzero;stroke:none"
             id="path58"
             inkscape:connector-curvature="0" /></g><g
           id="g60"
           transform="translate(316.0144,401.1776)"><path
             d="M 0,0 C -0.305,0 -0.611,-0.613 -0.611,-0.918 V -2.449 H 0.918 C 1.224,-1.531 1.224,-0.307 0,0"
             style="fill:#010101;fill-opacity:1;fill-rule:nonzero;stroke:none"
             id="path62"
             inkscape:connector-curvature="0" /></g><g
           id="g64"
           transform="translate(311.1188,452.8806)"><path
             d="M 0,0 C 0,0.611 -0.918,0.611 -0.918,0 -0.918,-0.611 0,-0.611 0,0"
             style="fill:#010101;fill-opacity:1;fill-rule:nonzero;stroke:none"
             id="path66"
             inkscape:connector-curvature="0" /></g><g
           id="g68"
           transform="translate(295.5163,376.3951)"><path
             d="M 0,0 C 0.307,0 0.307,0.307 0,0.307 -0.305,0.307 -0.305,0 0,0"
             style="fill:#010101;fill-opacity:1;fill-rule:nonzero;stroke:none"
             id="path70"
             inkscape:connector-curvature="0" /></g><g
           id="g72"
           transform="translate(745.2393,390.4721)"><path
             d="M 0,0 C -0.61,1.53 1.83,2.44 2.45,0.91 3.06,-0.61 0.92,-1.23 0,0 M -2.45,7.34 V 8.26 L -1.79,9.16 0,11.62 C 0.33,10.95 0.03,9.37 -0.57,8.28 -1.06,7.36 -1.75,6.78 -2.45,7.34 m -8.26,-55.68 c -3.98,5.81 -4.28,-6.43 -6.42,-7.65 l -2.45,1.83 c -1.53,0.92 -1.84,2.76 -2.45,3.98 0.61,1.53 0.92,0.61 2.45,1.84 l 1.53,1.53 c 2.45,3.36 6.73,3.67 9.18,0 z m -28.76,18.66 c -5.5,-29.06 -24.78,-46.5 -55.07,-41 -24.47,4.29 -35.18,29.99 -36.1,52.63 -0.61,16.52 0.92,34.26 9.79,48.34 7.65,12.23 20.81,17.43 34.57,18.35 27.84,1.53 46.81,-21.11 47.73,-47.73 0.31,-11.01 1.22,-20.19 -0.92,-30.59 m -33.65,-73.12 v 0.92 h 0.92 z m -27.84,-0.61 c -0.61,0.61 0.61,1.53 0.92,1.53 h 2.44 c 1.23,-2.14 -2.14,-3.06 -3.36,-1.53 m -2.45,18.05 c -0.61,-0.31 -1.53,0.3 -1.83,0.92 l 0.91,0.61 c 0.61,-0.31 1.23,-0.92 0.92,-1.53 m -23.86,2.45 c -0.62,0 -0.62,0.91 0,0.91 0.61,0 0.61,-0.91 0,-0.91 m -4.9,25.39 v 0.92 h 0.61 z M -134,-96.99 c 0,0.61 0.91,0.61 0.91,0 0,-0.61 -0.91,-0.61 -0.91,0 m 0,19.28 c 0.3,0 0.3,-0.61 0,-0.61 -0.31,0 -0.31,0.61 0,0.61 m -3.06,6.12 c -0.31,0 -0.31,0.3 0,0.3 0.3,0 0.3,-0.3 0,-0.3 m -4.9,80.76 V 7.34 c 0,-0.61 0.61,-4.28 0.61,-4.9 v -10.7 c 2.14,-2.76 0,-7.96 -3.97,-2.45 -1.23,-0.92 -2.15,-3.37 -2.45,-3.98 -0.92,-2.75 0.61,-3.36 2.45,-4.89 0.3,-0.31 2.44,-1.53 2.44,-1.84 0.31,-0.61 0.92,-4.89 -0.91,-5.81 -4.9,-2.45 -0.92,16.82 -11.32,-4.9 -0.31,-0.3 1.53,-4.59 -0.92,-3.06 -0.31,0.31 -1.84,3.37 -1.84,3.98 0,0.61 0.31,6.12 0,6.73 -0.61,3.06 -6.12,7.34 -4.89,13.77 h -0.61 c 0,0 -0.62,-2.76 -0.92,-3.98 v -3.36 h -1.53 c 0.3,0.61 0.3,3.67 0,3.97 0,0.31 -2.45,2.45 -2.45,2.45 -1.84,3.98 -3.06,18.97 -2.75,23.25 0.91,5.51 3.97,8.87 2.75,14.69 -0.61,2.44 3.67,0 3.06,3.98 1.22,-0.31 1.53,-5.21 3.37,-3.06 v -5.82 h 0.91 c 0,0.92 3.68,8.88 4.9,9.79 0.92,0.61 2.75,-0.91 3.98,-0.91 -0.31,0.3 -0.62,2.44 -0.62,2.75 0,3.67 7.96,-4.29 5.51,-11.63 0,-0.92 0.31,-1.53 0.92,-1.53 1.22,0.61 1.83,2.45 2.45,3.06 l 0.91,-0.61 1.53,-7.65 c 0,0 0.62,-1.22 0.92,-1.53 1.53,1.53 -1.22,10.1 -0.92,12.24 2.76,1.53 4.59,-10.4 4.29,-11.32 -1.53,-3.67 -3.06,-2.14 -4.9,-4.9 m 3.06,-33.04 h -0.61 v 0.92 h 0.61 z m -1.53,6.43 c -0.3,0 -0.3,0.61 0,0.61 0.31,0 0.31,-0.61 0,-0.61 m -10.71,-15.3 v 0.61 c 0.31,0.61 1.23,1.23 1.53,0.92 v -1.53 z m 1.53,-19.89 c 0,0.31 0.92,2.15 0.92,2.45 -0.3,1.84 -4.59,7.04 -1.53,8.26 0.61,0.61 2.45,-2.75 3.06,-3.36 0,-0.92 0.92,-5.51 0.92,-6.43 0.3,-1.83 -3.37,-2.45 -3.37,-0.92 m 0,-15.6 h -0.61 v 5.81 c 0,0.92 0.31,3.68 1.53,3.98 h 0.92 c 0.61,-2.14 -0.61,-1.53 -0.92,-3.98 0,-1.22 1.22,-4.58 -0.92,-5.81 m -2.44,18.05 c -0.62,0 -0.62,0.92 0,0.92 0.61,0 0.61,-0.92 0,-0.92 m 0,-7.65 c -0.31,0 -0.31,0.61 0,0.61 0.3,0 0.3,-0.61 0,-0.61 m -0.62,-20.19 c -0.3,0 -0.91,0.61 -0.91,0.92 -0.31,0.3 0.3,1.22 0.91,1.53 1.84,0 0,-2.45 0,-2.45 m -9.17,49.26 c -1.53,-0.92 -2.15,0.92 -2.45,1.53 -0.61,2.14 3.67,3.06 2.45,-1.53 m -3.37,-35.18 c -0.31,0 -0.31,0.61 0,0.61 0.61,0 0.61,-0.61 0,-0.61 M -50.79,62.41 c 0.31,-1.53 -0.3,-3.37 -0.92,-4.9 -0.61,0.31 -2.14,1.84 -2.44,2.45 -1.23,2.45 2.14,2.76 3.36,2.45 m -1.83,4.28 c 0,0 0.61,0.61 0.91,0.61 0.62,-0.3 1.23,-0.91 0.92,-1.53 h -1.83 z m 4.28,11.63 c 0.3,0 0.3,-0.61 0,-0.61 -0.31,0 -0.31,0.61 0,0.61 m 10.71,-19.28 c 0.61,1.53 5.81,-5.5 -0.92,-3.97 -0.3,0 -0.92,0.61 -0.92,0.91 z m 15.6,6.73 c 3.06,-4.28 -6.12,-7.34 -2.45,-8.26 11.63,-3.05 9.49,-4.28 10.71,-15.6 0.31,-2.14 12.85,-8.26 0.61,-6.42 -0.3,0 -1.83,0.3 -1.83,0.61 v 7.34 c 0,0.61 -1.53,1.22 -2.14,0.92 v -4.9 c 0,0 -6.73,-1.83 -8.26,-2.45 -1.23,-0.3 -3.06,7.65 -5.82,9.8 v 13.15 c -3.67,2.45 -0.61,4.28 -6.42,6.73 5.81,7.96 9.79,-3.36 15.6,-0.92 M -3.06,17.13 c 0.31,-3.98 -0.61,-7.04 -2.45,-2.45 -0.92,2.45 -0.61,4.9 2.45,2.45 m -5.81,14.99 c 0.61,0 0.61,-0.92 0,-0.92 -0.62,0 -0.62,0.92 0,0.92 m -3.37,-14.07 v 0.92 c 2.39,0.79 3.28,-1.56 3.2,-3.4 -0.06,-1.69 -0.96,-2.94 -2.28,-0.89 0,0 -0.56,2.26 -0.88,3.25 -0.02,0.05 -0.03,0.08 -0.04,0.12 m -3.36,14.07 c 1.83,-1.22 4.28,-4.59 3.36,-6.73 -0.92,-0.31 -3.06,0.61 -3.36,0.92 -2.76,1.22 -1.84,4.28 0,5.81 m -1.53,-9.79 c -0.62,-0.31 -1.53,0 -1.53,0.61 v 2.45 c 1.83,1.22 1.53,-2.75 1.53,-3.06 m -14.08,18.05 h 0.92 v -0.92 h -0.92 z m -3.97,10.71 v 1.53 c 1.22,0.92 2.44,-1.53 0.91,-2.45 -0.3,0 -0.91,0.61 -0.91,0.92 m 9.79,34.26 c -0.54,0.4 -1.08,0.79 -1.63,1.17 -13.82,9.69 -31.28,13.5 -48.45,14.47 -7.01,0.39 -13.96,0.31 -20.6,-0.03 -17.74,-0.62 -44.66,-9.79 -56.6,-23.56 l -1.83,-2.75 c -0.31,0 -2.14,-0.31 -2.45,-0.61 -16.83,-12.86 -29.68,-50.49 -30.29,-70.68 -0.91,-19.88 -1.22,-41 5.82,-59.96 13.76,-39.16 39.77,-61.5 81.38,-67.31 10.09,-1.53 20.8,-1.53 31.2,0 55.38,6.42 86.28,49.26 87.81,103.41 1.22,42.83 -8.88,79.54 -44.36,105.85"
             style="fill:#010101;fill-opacity:1;fill-rule:nonzero;stroke:none"
             id="path74"
             inkscape:connector-curvature="0" /></g><g
           id="g76"
           transform="translate(470.7657,333.3806)"><path
             d="m 0,0 v 0.92 h 0.61 z m -1.83,-39.47 c 0,0.61 0.91,0.61 0.91,0 0,-0.61 -0.91,-0.61 -0.91,0 m 0,19.28 c 0.3,0 0.3,-0.61 0,-0.61 -0.31,0 -0.31,0.61 0,0.61 m -3.06,6.12 c -0.31,0 -0.31,0.3 0,0.3 0.3,0 0.3,-0.3 0,-0.3 m -4.9,80.76 v -1.83 c 0,-0.61 0.61,-4.28 0.61,-4.9 v -10.7 c 2.14,-2.76 0,-7.96 -3.97,-2.45 -1.23,-0.92 -2.15,-3.37 -2.45,-3.98 -0.92,-2.75 0.61,-3.36 2.45,-4.89 0.3,-0.31 2.44,-1.53 2.44,-1.84 0.31,-0.61 0.92,-4.89 -0.91,-5.81 -4.9,-2.45 -0.92,16.82 -11.32,-4.9 -0.31,-0.3 1.53,-4.59 -0.92,-3.06 -0.31,0.31 -1.84,3.37 -1.84,3.98 0,0.61 0.31,6.12 0,6.73 -0.61,3.06 -6.12,7.34 -4.89,13.77 h -0.61 c 0,0 -0.62,-2.76 -0.92,-3.98 v -3.36 h -1.53 c 0.3,0.61 0.3,3.67 0,3.97 0,0.31 -2.45,2.45 -2.45,2.45 -1.84,3.98 -3.06,18.97 -2.75,23.25 0.91,5.51 3.97,8.87 2.75,14.69 -0.61,2.44 3.67,0 3.06,3.98 1.22,-0.31 1.53,-5.21 3.37,-3.06 v -5.82 h 0.91 c 0,0.92 3.68,8.88 4.9,9.79 0.92,0.61 2.75,-0.91 3.98,-0.91 -0.31,0.3 -0.62,2.44 -0.62,2.75 0,3.67 7.96,-4.29 5.51,-11.63 0,-0.92 0.31,-1.53 0.92,-1.53 1.22,0.61 1.83,2.45 2.45,3.06 l 0.91,-0.61 1.53,-7.65 c 0,0 0.62,-1.22 0.92,-1.53 1.53,1.53 -1.22,10.1 -0.92,12.24 2.76,1.53 4.59,-10.4 4.29,-11.32 -1.53,-3.67 -3.06,-2.14 -4.9,-4.9 m 3.06,-33.04 h -0.61 v 0.92 h 0.61 z m -1.53,6.43 c -0.3,0 -0.3,0.61 0,0.61 0.31,0 0.31,-0.61 0,-0.61 m -10.71,-15.3 v 0.61 c 0.31,0.61 1.23,1.23 1.53,0.92 v -1.53 z m 1.53,-19.89 c 0,0.31 0.92,2.15 0.92,2.45 -0.3,1.84 -4.59,7.04 -1.53,8.26 0.61,0.61 2.45,-2.75 3.06,-3.36 0,-0.92 0.92,-5.51 0.92,-6.43 0.3,-1.83 -3.37,-2.45 -3.37,-0.92 m 0,-15.6 h -0.61 v 5.81 c 0,0.92 0.31,3.68 1.53,3.98 h 0.92 c 0.61,-2.14 -0.61,-1.53 -0.92,-3.98 0,-1.22 1.22,-4.58 -0.92,-5.81 m -2.44,18.05 c -0.62,0 -0.62,0.92 0,0.92 0.61,0 0.61,-0.92 0,-0.92 m 0,-7.65 c -0.31,0 -0.31,0.61 0,0.61 0.3,0 0.3,-0.61 0,-0.61 M -20.5,-20.5 c -0.3,0 -0.91,0.61 -0.91,0.92 -0.31,0.3 0.3,1.22 0.91,1.53 1.84,0 0,-2.45 0,-2.45 m -9.17,49.26 c -1.53,-0.92 -2.15,0.92 -2.45,1.53 -0.61,2.14 3.67,3.06 2.45,-1.53 m -3.37,-35.18 c -0.31,0 -0.31,0.61 0,0.61 0.61,0 0.61,-0.61 0,-0.61 M 4.9,-24.48 c 0.61,0 0.61,-0.91 0,-0.91 -0.62,0 -0.62,0.91 0,0.91 m 22.94,-1.83 c 0.61,-0.31 1.23,-0.92 0.92,-1.53 -0.61,-0.31 -1.53,0.3 -1.83,0.92 z m 4.29,-18.05 h 2.44 c 1.23,-2.14 -2.14,-3.06 -3.36,-1.53 -0.61,0.61 0.61,1.53 0.92,1.53 m 26.92,0 h 0.92 l -0.92,-0.92 z M 45.89,106.16 c 4.884,0.265 19.635,-0.208 28.871,-1.319 3.564,-0.428 6.702,2.343 6.702,5.933 v 47.166 c -2.34,0.25 -22.423,0.44 -24.763,0.57 -7.01,0.39 -13.96,0.31 -20.6,-0.03 -17.74,-0.62 -44.66,-9.79 -56.6,-23.56 l -1.83,-2.75 c -0.31,0 -2.14,-0.31 -2.45,-0.61 -16.83,-12.86 -29.68,-50.49 -30.29,-70.68 -0.91,-19.88 -1.22,-41 5.82,-59.96 13.76,-39.16 39.77,-61.5 81.38,-67.31 7.334,-1.112 31.476,-0.592 44.165,-0.217 4.432,0.131 7.955,3.76 7.955,8.193 V -11.59 C 76.79,-14.3 47.53,-14.96 37.63,-13.16 13.16,-8.87 2.45,16.83 1.53,39.47 c -0.61,16.52 0.92,34.26 9.79,48.34 7.65,12.23 20.81,17.43 34.57,18.35"
             style="fill:#010101;fill-opacity:1;fill-rule:nonzero;stroke:none"
             id="path78"
             inkscape:connector-curvature="0" /></g><g
           id="g80"
           transform="translate(724.7393,441.2521)"><path
             d="M 0,0 C -0.31,0 -0.31,0.31 0,0.31 0.31,0.31 0.31,0 0,0"
             style="fill:#010101;fill-opacity:1;fill-rule:nonzero;stroke:none"
             id="path82"
             inkscape:connector-curvature="0" /></g><g
           id="g84"
           transform="translate(718.9293,433.9121)"><path
             d="M 0,0 C -0.61,0.92 1.53,2.75 2.45,0.92 3.36,-0.61 0.92,-0.61 0,0"
             style="fill:#010101;fill-opacity:1;fill-rule:nonzero;stroke:none"
             id="path86"
             inkscape:connector-curvature="0" /></g><path
           d="m 790.834,361.71 h 0.918 v 0.918 h -0.918 z"
           style="fill:#010101;fill-opacity:1;fill-rule:nonzero;stroke:none"
           id="path88"
           inkscape:connector-curvature="0" /><path
           d="m 804.907,355.286 h -0.918 v -0.918 h 0.918 z"
           style="fill:#010101;fill-opacity:1;fill-rule:nonzero;stroke:none"
           id="path90"
           inkscape:connector-curvature="0" /><g
           id="g92"
           transform="translate(795.7295,322.2433)"><path
             d="m 0,0 c -0.307,-0.611 -2.449,-3.365 -1.531,-4.896 2.449,-4.893 3.978,2.143 5.813,3.367 0,0 2.143,0.611 2.447,0.918 V 1.836 C 3.365,2.449 1.529,2.449 0,0"
             style="fill:#010101;fill-opacity:1;fill-rule:nonzero;stroke:none"
             id="path94"
             inkscape:connector-curvature="0" /></g><g
           id="g96"
           transform="translate(847.4325,465.1186)"><path
             d="M 0,0 C 0,-0.307 0.918,-0.307 0.918,0 0.918,0.611 0,0.611 0,0"
             style="fill:#010101;fill-opacity:1;fill-rule:nonzero;stroke:none"
             id="path98"
             inkscape:connector-curvature="0" /></g><g
           id="g100"
           transform="translate(794.1984,366.606)"><path
             d="M 0,0 C 0,-0.307 0.613,-1.224 0.613,-1.531 H 1.531 C 2.142,-0.613 0.613,0.611 0,0"
             style="fill:#010101;fill-opacity:1;fill-rule:nonzero;stroke:none"
             id="path102"
             inkscape:connector-curvature="0" /></g><g
           id="g104"
           transform="translate(792.3629,356.8148)"><path
             d="M 0,0 C 0.613,-1.224 1.531,-1.224 2.449,-0.918 V 1.529 C 1.836,1.836 -0.611,1.224 0,0"
             style="fill:#010101;fill-opacity:1;fill-rule:nonzero;stroke:none"
             id="path106"
             inkscape:connector-curvature="0" /></g><g
           id="g108"
           transform="translate(921.4713,332.9522)"><path
             d="m 0,0 v -0.918 c 0,0 0.611,-0.613 0.918,-0.613 C 1.224,-0.918 0.611,-0.307 0,0"
             style="fill:#010101;fill-opacity:1;fill-rule:nonzero;stroke:none"
             id="path110"
             inkscape:connector-curvature="0" /></g><g
           id="g112"
           transform="translate(928.1993,322.2421)"><path
             d="M 0,0 C -0.61,0 -0.61,0.92 0,0.92 0.31,0.92 0.31,0 0,0 m -0.91,-3.98 c -1.54,0.92 -4.29,0.92 -5.82,2.45 l -1.53,2.45 c -1.83,2.45 -4.28,-1.22 -5.81,-1.53 h -2.45 c -7.65,-1.53 0.31,-8.87 -3.36,-10.1 -0.92,0.31 -4.29,2.76 -4.9,3.37 -1.83,1.53 -3.06,8.57 -2.45,10.71 0,0.3 1.53,2.14 1.53,2.44 1.84,3.68 -0.3,7.65 0,11.63 0,2.45 3.98,-1.84 4.29,0 l 1.53,7.34 0.91,0.61 c 0,0 3.37,-0.3 4.9,-0.61 1.53,-0.3 4.59,-2.75 6.42,-1.83 2.76,1.53 -0.3,4.89 5.82,0.92 0.3,-0.92 -0.62,-1.23 -0.62,-2.45 v -4.9 C -3.36,11.01 -5.81,9.18 -2.45,4.29 -1.83,2.75 -4.28,1.84 -3.36,0 c 0.61,-0.61 3.67,-2.14 2.45,-3.98 m -25.4,-18.96 v 3.97 c 4.28,2.45 0.61,-9.48 0,-3.97 m -5.81,10.7 c -1.23,2.15 -2.14,4.9 -1.84,7.35 h 0.92 l 1.84,-3.37 c 0,-0.31 2.14,-2.14 2.44,-2.45 1.23,-2.14 -2.44,-3.36 -3.36,-1.53 m -1.84,-3.97 v 0.61 c 0.61,0.31 1.53,-0.31 1.84,-0.61 z m -2.44,12.23 v 1.53 c 0.3,0.62 1.22,1.23 1.83,0.92 0.31,-0.92 -0.31,-3.36 -1.83,-2.45 m 15.6,37.63 c 0,-0.3 -0.61,-0.3 -0.61,0 0,0.62 0.61,0.62 0.61,0 m 1.83,0.92 1.53,1.53 c 1.84,0 -0.3,-4.28 -1.53,-1.53 m 6.43,-8.26 c -0.31,0.31 -3.37,0.92 -3.98,0.92 h -3.36 c -1.84,7.04 11.93,1.22 7.34,-0.92 m -25.4,98.52 c -3.67,-0.31 -9.48,-0.62 -13.15,1.83 -11.01,-2.14 -13.15,5.2 -21.42,2.45 -0.91,-0.31 -4.89,7.34 -5.81,3.36 0,-0.3 0.31,-3.06 0,-3.36 0,-0.31 -1.83,-1.53 -2.45,-1.84 -6.73,-1.83 -3.97,11.63 -6.42,9.18 l -4.28,-3.98 c 0,0 -1.84,1.53 -2.45,1.53 -0.31,0 -1.22,-0.91 -1.53,-0.91 -1.23,0.61 -1.53,4.28 -3.98,3.36 v -5.81 l -1.83,-0.92 c 0,0.31 -0.62,1.53 -0.92,1.84 -3.06,5.5 0,10.09 6.73,10.71 h 3.98 c 2.14,0.61 3.05,3.36 5.81,0.61 4.59,7.03 10.1,6.11 17.44,5.2 3.36,-0.61 2.44,6.12 10.7,3.97 2.76,-0.61 6.12,1.23 7.96,2.45 3.98,-3.06 8.26,-1.22 12.54,-2.45 3.98,-1.22 12.24,-6.73 13.77,-10.7 v -3.37 c 0.31,-0.92 14.38,0.31 12.54,-3.06 -8.26,1.53 -1.83,-6.73 -6.73,-8.26 1.23,-1.83 4.29,-1.53 3.37,-4.28 -3.98,1.22 -6.73,1.22 -5.81,5.81 -9.49,3.37 -11.32,-13.46 -15.61,-8.87 -1.22,1.22 -0.3,4.89 -2.45,5.51 M -59.96,0.92 h -43.75 v 41.91 h 48.64 c 18.97,0 24.17,-41.91 -4.89,-41.91 m 12.85,-48.65 c 0,0.62 -0.61,2.76 -0.61,3.37 -0.31,1.53 -0.62,2.75 0.61,3.37 2.45,1.22 3.06,-7.96 0,-6.74 m -10.41,31.52 c -0.61,-0.62 -1.83,0.3 -1.83,0.61 -1.53,9.18 6.42,3.98 1.83,-0.61 m -20.8,-5.2 c 0,0 -2.75,-1.53 -3.06,-1.53 -4.89,0 -5.5,4.89 -8.26,3.97 -1.22,0 -1.53,-2.44 -1.83,-3.06 -0.31,-1.22 -1.23,-2.14 -0.62,-3.36 l 2.45,-4.9 c 0.92,-2.75 -3.06,-3.97 -4.89,-3.36 l -4.9,2.45 c -0.61,0.3 -2.14,0.3 -2.14,0 v -3.98 c 0,0 -7.96,-0.61 -11.02,-0.92 h -1.83 c -7.65,1.84 -7.95,-2.45 -14.69,3.37 -2.44,2.14 1.23,6.42 -0.91,9.79 -1.23,1.83 -5.2,0.91 -3.98,4.89 3.06,-0.61 5.81,0.92 2.45,3.37 -0.92,0.61 -4.29,2.75 -4.9,3.36 -1.53,-2.14 -0.92,-4.89 -2.44,-6.73 -2.15,-1.83 -2.45,4.59 -0.92,7.34 3.36,5.51 -1.53,4.9 0,8.26 3.36,6.43 6.42,5.51 8.87,9.79 1.83,2.45 -4.59,5.21 -3.06,9.18 0.31,0.61 0.61,2.76 0.61,3.37 v 1.22 h -3.06 l 1.53,2.76 c 1.23,1.52 -3.97,-1.54 -4.89,0 -0.92,-0.62 -1.53,-3.98 -3.37,-3.37 1.53,6.42 -3.36,3.06 -3.98,6.73 v 3.98 c 0,0.3 1.53,2.14 1.53,2.44 1.23,2.45 -2.44,4.9 -2.44,7.35 0,1.53 1.83,2.75 2.44,3.36 1.53,2.14 -6.42,9.18 1.53,10.71 1.84,0.31 2.76,-2.14 3.37,-1.53 3.67,3.37 -1.22,5.82 1.84,8.87 2.14,2.15 3.97,-4.59 4.89,-4.89 0.31,-0.31 2.75,-0.92 3.06,-0.92 h 1.83 l 1.53,3.37 c 0.31,0.3 3.06,0.91 3.37,0.91 3.98,1.23 4.9,1.84 3.98,-1.52 -1.23,-7.04 -0.92,-6.74 -7.96,-8.27 v -0.91 c 1.23,-4.29 6.73,0 8.88,0.91 4.89,1.53 5.5,0.62 4.89,-4.89 0,-0.61 -0.61,-3.06 -0.61,-3.37 0,-0.3 -1.84,-1.53 -1.84,-1.83 -0.92,-2.76 -0.3,-8.87 -3.98,-11.32 v -5.81 c 0,-0.31 0.62,-2.15 0.62,-2.45 0,-0.31 -0.31,-0.92 -0.62,-0.92 -3.05,3.98 -6.42,6.42 -9.17,0.92 -0.61,-1.23 1.53,-5.2 1.83,-6.43 v -5.2 c 0.31,-2.14 5.82,-2.75 6.43,-3.06 0.61,-0.61 1.53,-4.28 1.53,-4.89 10.09,0.91 5.2,5.81 7.64,6.42 1.23,-0.61 1.23,-3.67 1.54,-3.97 0,-0.31 0.91,-1.54 0.91,-1.84 0,-1.22 -4.28,-1.53 -4.89,-3.06 -1.84,-3.06 5.5,-1.84 6.42,-6.73 l 4.9,-1.53 4.89,-2.45 c 1.23,-0.61 3.37,2.45 4.29,0 3.06,-10.09 7.95,-0.92 9.79,-1.83 3.36,-1.53 -1.53,-1.53 4.89,-3.98 1.53,-0.61 3.98,-1.84 4.9,-3.37 -0.31,-1.22 -2.76,-0.61 -3.37,-0.91 m -7.34,-12.24 c -0.61,1.53 -0.92,2.45 -0.61,4.28 5.2,1.53 3.97,-9.48 0.61,-4.28 m -55.68,29.67 c 0,-1.22 -0.61,-9.48 -3.37,-7.34 v 8.87 c 0,1.53 -0.61,7.65 -0.92,9.18 -0.91,0.31 -1.22,1.53 -1.53,2.45 0.62,0.31 3.06,2.75 3.06,3.06 0.31,0.31 -0.3,2.75 0.92,2.75 h 5.81 c 1.53,-4.28 -3.97,-7.65 -3.97,-11.62 z m -13.16,109.22 v 0.92 c 0,0.31 1.84,2.14 2.45,2.45 h 0.61 c 0.92,-1.83 -1.53,-4.28 -3.06,-3.37 m 0,-110.13 v 1.53 h 1.53 z m -1.83,116.56 v 0.92 c 0.61,0.3 1.53,-0.31 1.83,-0.92 l -0.92,-0.61 c -0.3,0 -0.91,0.61 -0.91,0.61 m 0,5.81 c 0.91,0.62 2.14,-0.61 1.83,-1.53 -0.61,-0.3 -1.53,0.31 -1.83,0.92 z m 9.17,-20.5 c 0.62,0 0.62,-0.91 0,-0.91 -0.61,0 -0.61,0.91 0,0.91 m 3.98,1.23 c 0.31,0 0.31,-0.61 0,-0.61 -0.3,0 -0.3,0.61 0,0.61 m 10.71,23.86 c -0.31,0 -0.31,0.62 0,0.62 0.3,0 0.3,-0.62 0,-0.62 m 3.36,2.14 v -0.91 l -0.91,0.91 z m -0.91,15.61 c -1.23,-0.31 -3.06,0.3 -3.98,0.61 -6.12,3.67 5.81,6.42 3.98,-0.61 m 6.73,3.06 c 0.92,0.61 5.5,-0.92 3.98,-2.45 -1.84,-0.61 -3.06,0.3 -3.98,1.84 z m 9.79,-82.91 v -5.82 c -0.92,-0.3 -2.45,1.84 -2.45,1.84 -1.84,5.51 2.45,5.81 2.45,3.98 m -1.53,70.67 c 0.3,0.31 1.53,-0.31 1.53,-0.92 v -3.98 c -0.31,-1.22 -1.84,-0.61 -2.45,-0.91 -0.31,0 -3.06,-1.53 -3.36,-1.53 -0.92,0.3 -2.45,2.44 -2.45,3.36 0,0.31 0.61,0.61 0.91,0.61 h 3.98 c 0.61,0.31 1.84,2.76 1.84,3.37 m 6.42,-123.6 c 0.31,0 0.31,-0.61 0,-0.61 -0.3,0 -0.3,0.61 0,0.61 m 2.45,137.06 c 0.31,0 0.31,-0.61 0,-0.61 -0.3,0 -0.3,0.61 0,0.61 m 2.45,-37.32 c 0,0.61 0.61,4.28 0.92,4.89 0,0.31 0.61,0.92 0.61,0.92 h 47.11 c 11.63,0 14.99,-12.85 13.77,-22.03 -0.61,-8.57 -8.57,-12.24 -16.22,-13.16 -4.58,0 -25.39,-0.91 -29.67,-0.91 h -2.45 c -3.67,0.3 -12.54,0.91 -12.54,0.91 l -1.53,1.54 z M 17.13,18.97 C 16.52,31.21 11.93,43.45 3.98,52.62 0,57.21 -5.5,60.27 -10.71,63.33 v 1.53 c 13.47,7.34 21.42,20.19 23.87,34.57 6.12,38.25 -19.28,66.7 -57.52,66.7 H -160.31 V -52.62 h 111.67 c 1.53,0 7.65,0.61 9.18,0.92 39.77,6.73 58.43,30.59 56.59,70.67"
             style="fill:#010101;fill-opacity:1;fill-rule:nonzero;stroke:none"
             id="path114"
             inkscape:connector-curvature="0" /></g><path
           d="m 918.105,342.13 h -0.611 v -0.918 h 0.611 z"
           style="fill:#010101;fill-opacity:1;fill-rule:nonzero;stroke:none"
           id="path116"
           inkscape:connector-curvature="0" /></g></g></g></svg>